<svg id="svg" xmlns="http://www.w3.org/2000/svg" xmlns:xlink="http://www.w3.org/1999/xlink" width="400" height="400" viewBox="0, 0, 400,400"><g id="svgg"><path id="path0" d="M53.000 3.967 C 47.000 8.580,49.783 17.486,66.748 47.974 C 81.510 74.501,97.000 109.751,97.000 116.817 C 97.000 117.642,94.203 118.000,87.750 118.001 C 73.036 118.003,38.898 122.896,30.500 126.207 C 23.730 128.876,23.058 131.154,26.578 139.500 C 27.970 142.800,30.403 148.933,31.985 153.130 C 36.545 165.228,48.517 188.201,54.146 195.655 C 57.447 200.027,77.225 218.937,79.128 219.541 C 81.214 220.203,81.229 220.432,80.513 240.481 C 80.115 251.630,80.174 260.991,80.644 261.284 C 81.115 261.576,81.358 258.595,81.184 254.658 C 81.011 250.721,81.361 246.375,81.963 245.000 C 82.921 242.810,83.003 242.776,82.627 244.728 C 81.127 252.524,102.226 270.570,112.015 269.863 C 114.160 269.708,116.271 269.973,116.707 270.451 C 117.143 270.929,116.938 270.997,116.250 270.601 C 112.460 268.420,122.557 285.600,129.190 292.618 L 132.136 295.736 142.305 293.333 C 147.898 292.011,154.911 289.814,157.889 288.450 C 166.016 284.730,165.045 286.052,155.262 292.030 C 145.567 297.955,136.679 305.671,137.681 307.293 C 138.049 307.888,138.688 307.371,139.159 306.099 L 139.989 303.856 143.244 306.015 C 146.256 308.012,146.326 308.019,144.174 306.115 C 142.894 304.982,142.139 303.583,142.496 303.006 C 145.458 298.213,174.723 281.487,191.927 274.754 C 194.363 273.801,196.113 272.780,195.818 272.485 C 195.523 272.190,188.639 274.931,180.519 278.576 C 172.400 282.221,164.799 285.328,163.628 285.481 C 162.458 285.634,160.262 286.252,158.750 286.855 C 157.010 287.548,156.000 287.587,156.000 286.962 C 156.000 286.408,154.392 286.645,152.346 287.500 C 145.837 290.220,147.938 288.581,156.092 284.579 C 175.726 274.942,175.285 271.746,154.260 271.323 C 146.142 271.160,137.700 270.908,135.500 270.763 C 126.092 270.144,133.324 275.968,144.893 278.328 L 150.929 279.559 147.053 281.238 C 144.921 282.162,141.899 283.175,140.338 283.490 C 138.527 283.856,139.115 283.377,141.963 282.166 C 146.160 280.382,146.279 280.228,143.963 279.567 C 137.692 277.776,131.093 274.685,130.557 273.287 C 129.721 271.109,131.796 269.000,134.775 269.000 L 137.306 269.000 135.000 267.000 C 133.732 265.900,132.088 265.000,131.347 265.000 C 130.581 265.000,130.000 263.934,130.000 262.531 C 130.000 260.748,129.584 260.223,128.500 260.638 C 127.134 261.162,126.368 258.776,126.906 255.676 C 127.183 254.083,124.900 256.207,119.974 262.127 C 113.821 269.520,113.482 269.013,119.394 261.261 C 127.263 250.943,130.778 249.286,133.940 254.403 C 136.670 258.821,142.796 264.318,148.205 267.207 C 156.206 271.479,179.746 269.626,184.098 264.382 C 184.637 263.732,182.267 264.336,178.831 265.724 C 139.202 281.731,109.337 231.372,140.353 200.841 C 152.664 188.723,173.915 183.067,184.949 188.973 C 186.146 189.613,187.000 189.674,187.000 189.118 C 187.000 187.859,178.117 185.996,172.201 186.015 C 147.713 186.092,126.728 206.224,126.773 229.597 C 126.787 237.317,126.664 237.767,124.119 239.271 C 122.651 240.138,118.821 243.604,115.608 246.973 C 112.394 250.342,109.604 252.937,109.407 252.740 C 109.210 252.544,111.462 250.000,114.411 247.087 C 119.578 241.985,119.723 241.696,118.393 239.146 C 117.634 237.691,117.010 235.664,117.006 234.643 C 117.003 233.542,116.476 232.987,115.714 233.279 C 114.790 233.634,114.532 232.880,114.798 230.601 C 115.097 228.042,114.688 227.171,112.684 226.098 C 110.365 224.857,110.283 224.559,111.464 221.634 C 113.728 216.025,114.136 212.000,112.440 212.000 C 111.211 212.000,111.141 211.605,112.065 209.879 C 112.862 208.389,112.873 207.961,112.100 208.438 C 111.495 208.812,111.000 208.641,111.000 208.059 C 111.000 207.477,111.851 207.000,112.891 207.000 C 114.860 207.000,116.108 202.892,116.067 196.544 C 116.057 194.918,116.600 193.192,117.274 192.707 C 118.077 192.130,117.747 191.991,116.315 192.303 C 113.958 192.816,112.533 190.867,114.111 189.289 C 114.717 188.683,114.239 188.364,112.800 188.417 C 111.554 188.463,110.526 187.975,110.517 187.333 C 110.508 186.692,110.175 185.842,109.778 185.445 C 108.797 184.464,107.000 189.433,107.000 193.124 C 107.000 194.771,106.594 195.867,106.099 195.561 C 104.364 194.489,112.035 166.696,115.558 161.285 C 117.712 157.977,117.393 157.241,112.788 154.892 C 92.260 144.419,47.624 129.753,37.500 130.154 C 34.870 130.258,34.808 130.321,37.000 130.666 C 49.677 132.663,79.600 141.486,85.500 144.968 C 87.150 145.941,89.958 147.010,91.740 147.342 C 93.523 147.674,99.747 150.194,105.572 152.942 L 116.163 157.938 114.069 161.719 C 112.917 163.798,111.116 167.975,110.067 171.000 L 108.160 176.500 100.330 177.225 C 89.187 178.256,87.897 179.023,98.250 178.462 C 107.812 177.944,107.670 177.844,106.091 184.000 C 105.598 185.925,104.921 188.723,104.586 190.217 C 104.052 192.606,103.373 193.014,98.967 193.599 C 92.035 194.518,91.832 195.761,98.707 195.191 C 103.508 194.793,104.232 194.953,103.717 196.295 C 103.386 197.159,102.806 200.594,102.429 203.928 L 101.743 209.992 94.775 212.067 C 86.610 214.499,86.025 215.479,93.969 213.418 C 102.145 211.297,101.759 210.902,101.918 221.551 C 102.078 232.236,100.733 233.158,96.046 225.575 C 94.264 222.691,90.475 219.784,79.265 212.700 C 78.569 212.260,78.000 212.093,78.000 212.329 C 78.000 212.564,80.461 214.452,83.469 216.523 C 86.477 218.595,88.701 220.675,88.410 221.145 C 87.958 221.877,89.158 222.355,91.036 222.190 C 91.330 222.164,91.571 222.993,91.571 224.032 C 91.571 225.650,91.350 225.728,90.036 224.575 C 89.191 223.834,86.124 222.037,83.220 220.582 C 64.623 211.262,45.838 185.440,31.874 150.000 C 24.185 130.489,24.481 131.843,27.373 129.356 C 35.034 122.766,86.951 117.708,113.000 121.013 C 123.555 122.353,130.476 124.088,128.971 125.018 C 128.178 125.508,127.974 126.759,128.406 128.481 C 129.000 130.850,129.287 131.014,130.774 129.838 C 132.306 128.626,132.300 128.759,130.710 131.250 C 127.962 135.553,130.371 134.473,134.350 129.618 C 136.325 127.208,140.091 123.436,142.720 121.235 L 147.500 117.234 147.595 132.867 C 147.701 150.486,148.981 160.270,152.505 170.401 C 157.337 184.298,160.247 183.144,160.995 167.035 C 161.578 154.490,161.568 154.509,166.656 155.922 C 177.223 158.856,182.044 156.734,175.755 151.917 C 161.243 140.802,157.168 132.725,157.035 114.809 C 156.987 108.397,158.083 108.181,164.750 113.286 C 179.148 124.313,187.000 128.488,187.000 125.118 C 187.000 124.697,183.833 119.023,179.963 112.508 C 169.699 95.232,173.028 94.602,197.672 109.158 C 205.463 113.760,206.590 114.845,211.523 122.492 C 219.450 134.780,222.490 135.275,220.139 123.894 C 218.590 116.394,218.132 116.740,226.518 119.071 C 243.202 123.707,247.000 124.242,247.000 121.956 C 247.000 119.441,233.857 111.500,223.289 107.629 C 221.205 106.866,216.350 105.034,212.500 103.558 C 202.576 99.753,191.181 96.000,189.552 96.000 C 188.790 96.000,187.995 95.485,187.785 94.856 C 187.023 92.569,168.405 100.733,158.838 107.549 C 154.472 110.659,153.644 110.874,145.838 110.917 C 141.252 110.942,136.483 111.084,135.241 111.232 C 133.239 111.470,132.225 109.853,126.316 97.000 C 116.774 76.242,117.464 77.125,112.000 78.691 C 109.525 79.400,104.125 82.535,100.000 85.656 C 95.875 88.777,93.377 90.335,94.448 89.118 C 97.137 86.063,95.527 75.000,92.394 75.000 C 92.112 75.000,92.203 75.520,92.595 76.155 C 93.047 76.885,92.869 77.037,92.111 76.568 C 91.452 76.161,90.257 76.372,89.456 77.036 C 88.655 77.701,88.000 77.979,88.000 77.654 C 88.000 77.329,90.381 75.304,93.291 73.154 C 99.303 68.713,109.000 63.551,109.000 64.792 C 109.000 65.246,109.695 66.491,110.545 67.559 C 111.417 68.655,111.149 67.542,109.928 65.000 C 107.220 59.365,98.035 44.000,97.374 44.000 C 97.103 44.000,97.121 44.387,97.414 44.860 C 97.706 45.334,96.056 46.571,93.746 47.610 C 91.437 48.650,86.836 51.234,83.523 53.353 C 80.211 55.471,78.015 56.667,78.644 56.009 C 79.999 54.591,78.581 48.083,76.571 46.500 C 75.394 45.573,75.000 44.812,75.000 43.465 C 75.000 43.170,73.987 43.424,72.750 44.029 C 68.096 46.303,77.656 38.985,83.320 35.939 C 89.823 32.441,89.277 32.248,94.082 39.750 C 96.281 43.184,97.731 44.234,96.122 41.228 C 90.834 31.348,74.123 12.831,65.122 6.879 C 56.814 1.385,56.466 1.302,53.000 3.967 M253.500 7.853 C 239.679 12.371,211.112 50.097,199.329 79.394 C 195.257 89.520,194.096 91.497,191.523 92.699 C 188.999 93.877,188.913 94.017,191.000 93.551 C 192.375 93.244,196.762 92.703,200.750 92.350 C 207.228 91.775,211.150 90.000,205.941 90.000 C 204.809 90.000,204.120 89.615,204.410 89.145 C 204.701 88.675,203.864 87.282,202.552 86.049 L 200.165 83.807 198.519 86.653 C 196.691 89.815,197.068 88.471,200.610 79.205 C 210.381 53.647,238.349 15.769,251.911 9.729 L 256.322 7.764 260.437 12.132 C 262.701 14.534,266.453 18.921,268.776 21.881 C 271.099 24.840,273.000 26.787,273.000 26.207 C 273.000 24.333,257.458 6.832,256.031 7.100 C 255.739 7.155,254.600 7.494,253.500 7.853 M252.196 17.750 C 246.366 26.016,242.767 37.240,239.452 57.500 C 238.552 63.000,236.481 73.068,234.848 79.872 C 231.654 93.185,231.699 94.997,235.219 95.006 C 252.577 95.055,292.732 113.101,309.486 128.383 L 315.473 133.843 312.702 134.539 C 310.306 135.140,309.293 134.594,305.215 130.501 C 294.508 119.754,274.697 114.924,263.711 120.383 C 255.836 124.295,240.814 141.273,242.629 144.209 C 242.910 144.664,244.276 142.890,245.666 140.268 C 253.156 126.131,263.065 119.474,276.500 119.553 C 309.399 119.748,326.528 155.666,305.290 179.923 C 302.277 183.365,301.448 184.758,303.021 183.737 C 305.190 182.329,305.742 182.308,307.441 183.564 C 308.509 184.354,310.534 184.954,311.941 184.898 C 314.143 184.810,314.034 184.685,311.157 184.005 C 306.288 182.854,305.626 181.746,308.003 178.724 C 313.317 171.968,315.491 165.008,315.473 154.807 C 315.449 141.147,320.935 139.005,326.978 150.314 L 330.351 156.629 327.024 161.564 C 325.195 164.279,320.985 168.999,317.669 172.054 C 314.037 175.399,311.924 178.069,312.356 178.767 C 314.491 182.222,325.047 182.096,333.622 178.513 C 336.600 177.269,337.517 177.211,338.162 178.227 C 339.495 180.328,339.187 177.469,337.400 171.154 C 333.435 157.140,321.332 138.000,309.608 127.202 C 307.041 124.838,305.229 122.439,305.581 121.870 C 305.932 121.301,304.773 117.696,303.005 113.860 C 300.088 107.532,299.745 105.755,299.301 94.693 C 298.702 79.744,297.206 72.757,291.916 60.212 C 287.342 49.363,275.374 28.000,273.871 28.000 C 273.336 28.000,273.972 29.462,275.285 31.250 C 290.076 51.387,301.172 85.224,297.623 99.366 C 296.713 102.990,295.210 102.671,294.723 98.750 C 294.478 96.769,294.258 97.757,294.160 101.283 C 294.037 105.730,294.593 108.237,296.567 112.133 C 299.811 118.534,299.689 118.600,292.613 114.272 L 286.751 110.687 289.464 109.265 C 290.956 108.483,291.954 107.621,291.681 107.348 C 291.409 107.075,289.836 107.551,288.185 108.404 C 285.387 109.851,284.843 109.806,280.116 107.728 C 273.650 104.886,273.621 104.991,282.500 99.000 C 286.625 96.216,290.000 93.697,290.000 93.401 C 290.000 93.106,288.762 93.720,287.250 94.766 C 285.738 95.812,281.896 98.372,278.714 100.455 L 272.929 104.242 265.398 101.495 L 257.867 98.748 260.683 95.779 C 262.233 94.146,268.113 89.416,273.750 85.268 C 279.387 81.119,284.000 77.532,284.000 77.295 C 284.000 76.241,263.473 91.673,259.981 95.352 C 258.616 96.789,256.769 97.973,255.877 97.983 C 253.797 98.005,238.982 94.315,238.263 93.596 C 237.582 92.915,251.833 79.171,267.160 65.728 C 273.574 60.102,278.666 55.343,278.477 55.150 C 278.094 54.760,254.679 75.557,242.971 86.686 C 238.666 90.779,234.931 93.575,234.295 93.182 C 232.744 92.224,238.230 69.502,240.700 66.653 C 241.727 65.469,246.347 60.225,250.967 55.000 C 263.094 41.285,265.373 38.465,258.285 45.943 C 254.866 49.549,249.466 55.509,246.285 59.187 C 238.198 68.536,238.501 69.597,242.694 46.598 C 244.483 36.786,250.081 27.605,256.654 23.700 C 257.394 23.260,257.988 22.360,257.973 21.700 C 257.959 21.040,255.230 23.425,251.910 27.000 C 245.021 34.419,244.784 32.907,251.086 21.750 C 255.056 14.721,255.525 13.031,252.196 17.750 M264.387 25.297 C 266.507 27.883,268.450 30.000,268.704 30.000 C 269.386 30.000,263.053 22.151,261.693 21.310 C 261.055 20.916,262.267 22.710,264.387 25.297 M113.500 73.000 C 114.353 74.650,115.276 76.000,115.551 76.000 C 115.826 76.000,115.353 74.650,114.500 73.000 C 113.647 71.350,112.724 70.000,112.449 70.000 C 112.174 70.000,112.647 71.350,113.500 73.000 M127.650 101.944 L 129.800 106.840 126.766 108.097 C 125.098 108.788,121.430 111.109,118.616 113.254 C 114.874 116.107,114.373 116.332,116.750 114.091 C 119.929 111.095,120.754 109.809,119.250 110.190 C 117.834 110.550,111.500 108.748,110.905 107.817 C 110.573 107.296,108.584 107.841,106.405 109.048 C 99.245 113.016,106.502 107.679,115.933 102.041 C 126.082 95.974,125.033 95.983,127.650 101.944 M254.000 104.352 C 254.000 109.454,261.011 115.064,264.759 112.962 C 268.838 110.673,268.121 108.807,262.000 105.782 C 255.796 102.716,254.000 102.395,254.000 104.352 M298.390 106.500 C 298.880 108.691,298.787 109.095,298.046 108.000 C 297.487 107.175,297.024 105.638,297.015 104.583 C 296.995 102.025,297.567 102.823,298.390 106.500 M262.222 141.527 C 250.485 147.486,245.850 160.695,251.351 172.507 C 259.983 191.043,285.891 190.628,293.981 171.823 C 302.500 152.019,281.331 131.824,262.222 141.527 M278.546 144.455 C 282.254 146.004,283.591 148.016,282.611 150.571 C 282.079 151.957,281.683 151.914,279.254 150.210 C 277.739 149.147,274.828 147.972,272.785 147.600 C 270.742 147.227,268.803 146.490,268.476 145.961 C 266.594 142.916,272.684 142.005,278.546 144.455 M58.000 144.561 C 61.461 145.320,72.857 145.528,71.729 144.811 C 71.053 144.382,67.350 144.076,63.500 144.131 C 59.650 144.187,57.175 144.380,58.000 144.561 M76.500 145.506 C 78.786 146.303,84.822 146.521,84.371 145.791 C 84.102 145.356,81.996 145.036,79.691 145.079 C 77.386 145.122,75.950 145.315,76.500 145.506 M99.500 163.500 C 101.927 164.329,110.881 164.617,110.407 163.850 C 110.118 163.382,107.321 163.036,104.191 163.079 C 101.061 163.122,98.950 163.312,99.500 163.500 M335.924 170.131 C 335.987 170.652,328.352 173.000,326.595 173.000 C 326.309 173.000,327.744 170.753,329.785 168.008 L 333.495 163.015 334.671 166.258 C 335.318 168.041,335.882 169.784,335.924 170.131 M117.005 173.990 C 112.631 182.164,116.332 186.271,127.667 185.823 C 139.567 185.352,139.549 183.782,127.552 175.944 C 120.769 171.511,118.552 171.101,117.005 173.990 M330.500 181.111 C 327.200 182.727,325.625 183.756,327.000 183.396 C 329.969 182.621,337.000 179.164,337.000 178.480 C 337.000 177.879,337.556 177.655,330.500 181.111 M335.500 183.379 C 334.400 184.079,328.100 187.872,321.500 191.807 C 314.900 195.742,308.150 200.127,306.500 201.553 C 302.815 204.737,304.741 203.831,312.000 198.966 C 315.025 196.939,322.663 192.292,328.974 188.640 C 335.285 184.988,339.785 182.024,338.974 182.052 C 338.163 182.081,336.600 182.678,335.500 183.379 M341.000 196.031 C 341.000 197.149,340.212 198.335,339.250 198.667 C 331.458 201.357,308.618 211.951,309.249 212.583 C 309.489 212.822,313.468 211.259,318.092 209.109 C 322.717 206.959,329.812 203.804,333.860 202.098 L 341.219 198.996 340.810 202.498 C 340.586 204.424,340.761 206.000,341.201 206.000 C 341.640 206.000,342.000 203.300,342.000 200.000 C 342.000 196.700,341.775 194.000,341.500 194.000 C 341.225 194.000,341.000 194.914,341.000 196.031 M174.500 195.952 C 151.136 199.868,145.982 231.964,166.889 243.343 C 177.330 249.026,188.683 247.404,197.028 239.039 C 214.735 221.289,199.314 191.793,174.500 195.952 M185.315 199.071 C 189.503 200.233,193.000 203.159,193.000 205.500 C 193.000 207.586,190.742 207.372,187.727 205.000 C 186.329 203.900,183.848 203.000,182.215 203.000 C 178.633 203.000,176.471 200.929,178.224 199.176 C 179.664 197.736,180.468 197.724,185.315 199.071 M207.000 201.313 C 207.000 201.485,208.463 202.948,210.250 204.563 L 213.500 207.500 210.563 204.250 C 207.825 201.221,207.000 200.540,207.000 201.313 M104.253 211.147 C 103.698 211.702,103.552 210.769,103.881 208.781 C 104.342 206.004,104.482 205.864,104.797 207.865 C 105.002 209.166,104.757 210.643,104.253 211.147 M339.116 213.560 C 339.018 215.304,337.232 216.133,327.461 218.968 C 321.115 220.810,315.658 222.744,315.336 223.265 C 314.981 223.840,315.686 223.910,317.125 223.442 C 318.431 223.018,323.689 221.436,328.809 219.927 L 338.118 217.185 337.592 220.342 C 337.239 222.464,337.553 222.024,338.550 219.000 C 339.367 216.525,339.854 213.825,339.633 213.000 C 339.386 212.077,339.187 212.292,339.116 213.560 M242.259 215.671 C 236.227 218.607,236.272 220.449,242.353 219.480 C 246.455 218.825,249.000 216.845,249.000 214.309 C 249.000 212.564,248.392 212.687,242.259 215.671 M334.118 230.773 C 332.874 234.473,331.641 238.175,331.377 239.000 C 331.112 239.825,331.578 239.375,332.412 238.000 C 334.069 235.268,337.343 225.010,336.749 224.415 C 336.545 224.212,335.361 227.073,334.118 230.773 M286.430 229.156 C 285.178 231.932,283.049 234.281,280.078 236.166 C 277.620 237.725,276.042 239.000,276.572 239.000 C 280.160 239.000,290.621 227.288,288.726 225.393 C 288.499 225.166,287.466 226.859,286.430 229.156 M93.921 232.941 C 93.853 234.288,93.766 234.296,93.286 233.000 C 92.980 232.175,92.316 230.600,91.810 229.500 C 90.904 227.532,90.915 227.531,92.445 229.441 C 93.300 230.509,93.964 232.084,93.921 232.941 M83.108 235.570 C 82.594 239.100,82.195 240.235,82.122 238.375 C 81.991 235.024,83.032 228.699,83.618 229.285 C 83.814 229.480,83.584 232.308,83.108 235.570 M96.000 236.500 C 96.000 237.325,95.980 238.249,95.956 238.554 C 95.932 238.859,96.944 240.018,98.206 241.130 C 99.468 242.242,99.938 242.867,99.250 242.517 C 97.219 241.485,97.799 243.742,101.122 249.804 C 106.640 259.870,108.149 262.026,109.215 261.367 C 109.813 260.998,110.045 261.316,109.757 262.111 C 109.481 262.875,110.174 264.511,111.298 265.746 C 112.422 266.981,113.115 268.219,112.838 268.495 C 111.885 269.448,103.755 257.483,99.530 248.910 C 94.854 239.420,93.408 235.000,94.981 235.000 C 95.541 235.000,96.000 235.675,96.000 236.500 M256.000 236.549 C 256.000 237.282,262.122 240.126,263.022 239.811 C 263.509 239.640,262.128 238.746,259.954 237.824 C 257.779 236.903,256.000 236.329,256.000 236.549 M88.466 245.500 C 89.931 249.900,92.245 255.412,93.608 257.750 C 94.970 260.087,95.857 262.000,95.579 262.000 C 94.404 262.000,85.020 249.777,85.544 248.930 C 85.860 248.418,85.615 248.000,85.000 248.000 C 84.385 248.000,84.216 247.460,84.624 246.799 C 85.202 245.865,85.455 245.865,85.766 246.799 C 86.985 250.456,87.576 247.243,86.402 243.341 C 85.017 238.738,84.622 236.274,85.400 237.083 C 85.621 237.313,87.000 241.100,88.466 245.500 M328.202 245.522 C 327.005 247.985,326.236 250.000,326.493 250.000 C 327.170 250.000,331.211 241.877,330.758 241.425 C 330.549 241.215,329.398 243.059,328.202 245.522 M204.000 249.500 C 201.571 251.975,199.809 254.000,200.084 254.000 C 200.359 254.000,202.571 251.975,205.000 249.500 C 207.429 247.025,209.191 245.000,208.916 245.000 C 208.641 245.000,206.429 247.025,204.000 249.500 M244.828 260.051 C 242.258 262.766,240.908 264.582,241.828 264.086 C 243.438 263.217,246.137 260.425,248.920 256.750 C 251.254 253.668,249.631 254.976,244.828 260.051 M307.000 275.280 C 303.425 278.715,298.925 282.787,297.000 284.330 C 294.017 286.720,293.960 286.833,296.613 285.097 C 298.325 283.976,299.900 283.168,300.113 283.300 C 300.326 283.433,303.617 280.270,307.426 276.271 C 315.917 267.358,315.721 266.902,307.000 275.280 M175.302 276.617 C 172.443 279.586,170.907 281.585,171.888 281.060 C 173.686 280.098,181.000 272.422,181.000 271.497 C 181.000 270.724,180.823 270.883,175.302 276.617 M83.199 278.500 C 83.199 279.600,83.560 281.625,84.000 283.000 C 84.634 284.980,84.801 285.084,84.801 283.500 C 84.801 282.400,84.440 280.375,84.000 279.000 C 83.366 277.020,83.199 276.916,83.199 278.500 M187.981 288.720 C 181.116 292.895,170.806 299.918,165.070 304.325 L 154.640 312.337 150.820 310.139 C 148.719 308.930,147.000 308.153,147.000 308.413 C 147.000 308.674,148.840 309.984,151.089 311.325 L 155.177 313.763 164.095 306.631 C 171.865 300.418,196.717 283.982,200.249 282.721 C 200.937 282.475,201.266 282.016,200.981 281.701 C 200.695 281.386,194.845 284.544,187.981 288.720 M129.135 286.797 C 127.834 287.002,126.357 286.757,125.853 286.253 C 125.298 285.698,126.231 285.552,128.219 285.881 C 130.996 286.342,131.136 286.482,129.135 286.797 M85.109 287.000 C 85.070 287.825,85.665 290.750,86.430 293.500 C 87.195 296.250,87.853 297.825,87.891 297.000 C 87.930 296.175,87.335 293.250,86.570 290.500 C 85.805 287.750,85.147 286.175,85.109 287.000 M197.428 299.274 C 183.787 313.358,176.206 322.000,177.491 322.000 C 178.084 322.000,180.731 319.413,183.374 316.250 C 186.017 313.087,192.698 305.871,198.220 300.213 C 203.742 294.556,208.057 289.723,207.808 289.475 C 207.560 289.227,202.889 293.636,197.428 299.274 M284.962 293.072 L 281.500 296.144 285.250 293.453 C 288.564 291.076,289.642 290.000,288.712 290.000 C 288.554 290.000,286.866 291.382,284.962 293.072 M134.733 291.718 C 132.936 291.990,132.214 292.550,132.675 293.318 C 133.080 293.993,132.659 293.912,131.692 293.128 C 129.303 291.190,129.521 290.981,133.750 291.150 C 136.794 291.271,136.979 291.378,134.733 291.718 M133.000 297.312 C 133.000 297.484,134.463 298.680,136.250 299.970 L 139.500 302.317 137.076 299.658 C 135.005 297.388,133.000 296.233,133.000 297.312 M291.633 305.687 C 288.813 314.247,284.388 335.316,283.585 344.000 L 283.077 349.500 284.110 344.000 C 287.719 324.775,290.298 313.138,292.454 306.348 C 293.810 302.079,294.759 298.425,294.563 298.229 C 294.367 298.033,293.048 301.389,291.633 305.687 M88.065 299.998 C 87.988 301.779,94.053 320.280,94.551 319.782 C 94.741 319.593,93.373 314.727,91.513 308.969 C 89.652 303.211,88.101 299.174,88.065 299.998 M271.203 302.429 C 266.558 305.713,265.905 306.652,269.827 304.406 C 271.657 303.357,273.624 301.938,274.199 301.250 C 275.677 299.483,274.984 299.756,271.203 302.429 M95.044 321.312 C 94.931 323.401,102.592 337.324,105.717 340.705 C 109.140 344.410,108.380 342.549,104.784 338.422 C 103.789 337.279,101.200 332.779,99.031 328.422 C 96.862 324.065,95.068 320.865,95.044 321.312 M195.021 327.264 C 194.888 332.126,227.218 388.000,230.165 388.000 C 230.669 388.000,230.033 386.870,228.753 385.489 C 224.637 381.050,213.878 362.992,204.333 344.500 C 199.223 334.600,195.033 326.844,195.021 327.264 M131.024 339.529 C 132.077 340.798,131.889 341.523,129.925 343.779 L 127.556 346.500 130.419 343.837 C 133.213 341.237,133.485 338.000,130.909 338.000 C 130.087 338.000,130.121 338.441,131.024 339.529 M123.787 345.000 C 123.545 346.650,123.718 348.000,124.173 348.000 C 124.628 348.000,125.000 346.650,125.000 345.000 C 125.000 343.350,124.826 342.000,124.613 342.000 C 124.401 342.000,124.029 343.350,123.787 345.000 M114.100 344.250 C 113.984 346.289,112.896 346.496,111.200 344.800 C 110.540 344.140,110.000 343.922,110.000 344.315 C 110.000 345.686,116.520 348.992,119.000 348.878 C 121.290 348.773,121.252 348.710,118.545 348.130 C 116.529 347.697,115.368 346.702,114.894 344.998 C 114.455 343.421,114.163 343.145,114.100 344.250 M282.015 351.639 C 282.007 352.266,282.925 353.841,284.056 355.139 C 285.673 356.995,285.894 357.072,285.090 355.500 C 283.355 352.108,282.031 350.446,282.015 351.639 M284.230 363.661 C 285.812 365.446,285.827 365.821,284.400 368.056 L 282.840 370.500 284.920 368.139 C 287.557 365.146,287.531 364.349,284.750 362.890 C 282.575 361.748,282.557 361.774,284.230 363.661 M279.064 367.500 C 279.064 368.050,279.724 369.374,280.532 370.441 C 281.339 371.509,282.000 371.932,282.000 371.382 C 282.000 370.832,281.339 369.509,280.532 368.441 C 279.724 367.374,279.064 366.950,279.064 367.500 M271.153 373.436 C 271.795 374.846,272.715 376.000,273.196 376.000 C 274.219 376.000,272.455 372.399,270.987 371.492 C 270.415 371.138,270.486 371.972,271.153 373.436 M253.930 392.869 C 254.480 393.896,254.608 395.093,254.215 395.529 C 253.822 395.964,254.020 396.023,254.656 395.659 C 255.954 394.917,255.275 391.000,253.848 391.000 C 253.319 391.000,253.354 391.792,253.930 392.869 M246.000 395.117 C 246.000 396.828,245.527 397.143,243.530 396.761 C 242.172 396.501,241.298 396.674,241.589 397.144 C 242.899 399.264,247.000 398.018,247.000 395.500 C 247.000 394.125,246.775 393.000,246.500 393.000 C 246.225 393.000,246.000 393.952,246.000 395.117 " stroke="none" fill="#000000" fill-rule="evenodd"></path></g></svg>