<svg id="svg" xmlns="http://www.w3.org/2000/svg" xmlns:xlink="http://www.w3.org/1999/xlink" width="400" height="400" viewBox="0, 0, 400,400"><g id="svgg"><path id="path0" d="M127.975 2.565 C 125.570 8.890,127.202 18.773,131.865 26.126 L 134.755 30.682 129.705 29.765 C 118.458 27.720,110.203 31.050,97.486 42.761 C 90.862 48.860,89.448 51.467,94.164 48.882 C 98.309 46.611,109.883 47.222,114.750 49.970 C 120.351 53.131,120.205 53.386,111.981 54.796 C 89.186 58.705,70.554 54.084,59.488 41.775 C 54.044 35.720,53.437 36.016,54.849 44.032 C 56.973 56.091,63.855 66.604,74.000 73.289 C 76.475 74.920,77.768 76.007,76.873 75.706 C 65.164 71.759,31.615 82.881,18.652 95.007 C 11.097 102.074,4.570 115.085,11.744 108.777 C 14.641 106.230,21.245 103.250,27.704 101.577 C 35.918 99.448,36.116 99.541,30.696 102.978 C 24.158 107.124,24.542 108.522,32.215 108.510 C 38.196 108.500,38.506 108.626,40.465 111.847 C 43.860 117.432,49.153 123.028,52.927 125.023 L 56.500 126.912 51.399 126.956 C 48.594 126.980,44.858 126.498,43.098 125.884 C 41.338 125.271,39.630 125.037,39.302 125.365 C 38.495 126.172,46.741 133.618,50.490 135.469 L 53.500 136.954 49.750 136.977 C 42.436 137.022,45.475 139.953,53.892 140.974 C 59.319 141.632,59.410 141.692,56.690 142.825 C 55.144 143.469,54.116 144.379,54.405 144.846 C 55.567 146.726,47.976 158.816,44.256 161.012 C 35.436 166.216,16.962 168.520,8.500 165.471 C 3.707 163.744,4.000 163.779,4.000 164.943 C 4.000 169.080,30.413 184.408,39.500 185.543 L 44.963 186.226 39.496 192.267 C 30.890 201.778,25.843 217.053,30.750 218.738 C 31.489 218.991,32.000 218.309,32.000 217.069 C 32.000 211.066,43.599 208.154,54.187 211.499 C 59.337 213.126,63.394 213.853,65.162 213.464 L 67.966 212.849 64.887 219.427 C 60.069 229.723,59.659 236.840,64.176 231.750 C 66.011 229.683,66.003 229.757,64.085 232.657 C 61.321 236.834,53.393 242.000,49.745 242.000 C 45.597 242.000,46.705 243.972,52.546 246.980 C 57.712 249.641,70.750 250.544,77.376 248.699 C 79.804 248.023,80.155 248.154,79.626 249.532 C 79.281 250.431,78.712 254.900,78.361 259.464 C 77.430 271.579,79.433 277.279,81.946 269.665 C 83.593 264.674,94.502 256.169,96.585 258.252 C 97.385 259.052,93.658 263.179,91.339 264.061 C 86.958 265.727,89.742 267.306,95.805 266.593 C 101.969 265.869,108.786 263.190,110.861 260.677 C 112.116 259.155,112.415 259.181,114.745 261.014 C 116.134 262.106,118.500 263.000,120.004 263.000 C 122.347 263.000,122.819 263.494,123.298 266.452 C 123.990 270.714,131.101 286.046,133.175 287.746 C 134.515 288.844,134.356 289.664,131.832 294.668 C 130.257 297.790,128.689 302.092,128.348 304.227 C 127.159 311.663,101.110 331.163,68.500 349.028 C 55.141 356.347,48.881 361.692,42.616 371.127 C 39.257 376.187,34.118 389.447,32.687 396.750 L 32.050 400.000 58.140 400.000 L 84.230 400.000 83.532 394.409 C 81.856 380.999,83.238 345.660,85.586 341.861 C 85.857 341.422,91.124 337.722,97.290 333.638 C 103.455 329.555,111.759 323.465,115.742 320.107 C 123.813 313.300,124.317 313.037,123.091 316.260 C 119.133 326.672,118.317 370.296,121.616 395.166 L 122.258 400.000 207.014 400.000 L 291.770 400.000 292.871 392.250 C 294.860 378.250,296.909 355.844,298.106 335.000 C 298.754 323.725,299.407 314.350,299.558 314.168 C 299.708 313.985,303.807 316.494,308.666 319.745 C 313.525 322.995,322.113 328.476,327.750 331.924 C 335.639 336.750,337.999 338.690,337.998 340.347 C 337.988 349.175,333.642 393.970,332.381 398.250 C 331.898 399.889,333.772 400.000,362.040 400.000 C 389.233 400.000,392.154 399.843,391.603 398.407 C 391.267 397.531,390.716 395.619,390.379 394.157 C 385.313 372.195,374.526 357.296,355.971 346.631 C 329.833 331.608,308.188 318.051,287.548 303.775 C 286.869 303.305,287.556 301.047,289.500 297.359 C 291.150 294.229,292.648 291.299,292.828 290.849 C 293.009 290.399,291.777 288.770,290.090 287.230 L 287.024 284.429 289.543 280.721 C 290.929 278.682,293.001 274.563,294.147 271.568 C 296.021 266.670,296.775 265.855,301.641 263.475 C 304.617 262.019,308.398 259.695,310.043 258.310 C 314.677 254.411,322.826 258.336,325.998 265.995 C 328.545 272.145,329.871 269.302,329.073 259.403 L 328.500 252.305 331.589 252.189 C 338.163 251.942,346.100 246.437,349.656 239.657 C 351.541 236.063,351.039 235.578,347.399 237.476 C 341.492 240.556,335.612 237.697,334.350 231.129 L 333.702 227.758 336.312 229.469 C 337.747 230.409,339.195 232.039,339.528 233.089 C 340.325 235.600,341.534 235.504,343.443 232.777 C 345.392 229.995,345.428 225.466,343.544 220.126 C 341.920 215.523,342.266 215.322,347.920 217.585 C 352.695 219.495,355.000 222.712,355.000 227.465 C 355.000 233.608,357.687 230.807,359.407 222.872 C 360.318 218.671,358.086 209.097,354.669 202.547 C 352.934 199.221,351.382 196.224,351.219 195.887 C 351.057 195.550,352.404 194.664,354.212 193.918 C 360.808 191.198,370.000 180.542,370.000 175.617 C 370.000 174.812,371.125 172.816,372.500 171.182 C 376.103 166.900,375.680 166.279,369.505 166.791 C 359.225 167.644,356.015 164.950,361.535 160.104 C 367.106 155.212,377.000 157.354,377.000 163.452 C 377.000 164.304,377.705 165.000,378.567 165.000 C 383.693 165.000,372.644 148.073,365.348 144.749 C 363.261 143.798,363.457 143.507,368.995 139.344 C 375.239 134.651,380.450 127.780,381.544 122.799 C 381.912 121.124,383.032 118.346,384.033 116.627 C 385.723 113.724,387.742 106.000,386.811 106.000 C 386.585 106.000,383.917 108.405,380.882 111.344 C 377.304 114.809,373.643 117.274,370.467 118.356 L 365.569 120.025 369.285 116.221 C 373.426 111.979,374.609 108.140,370.620 111.888 C 363.947 118.156,351.290 117.837,343.734 111.210 C 342.084 109.763,342.314 109.472,347.226 106.785 C 355.154 102.450,357.512 99.645,364.113 86.698 C 370.223 74.715,370.988 71.563,366.653 76.240 C 359.623 83.826,341.285 90.207,331.906 88.331 C 329.123 87.775,329.143 87.742,335.420 82.383 C 345.235 74.004,347.430 70.218,347.851 60.939 C 348.390 49.078,343.519 35.518,342.154 45.078 C 341.601 48.953,338.609 51.479,332.250 53.441 C 323.687 56.082,335.438 34.835,344.237 31.768 C 349.440 29.954,346.997 29.000,337.149 29.000 C 326.813 29.000,322.408 29.975,317.597 33.330 L 314.694 35.354 315.275 32.927 C 318.716 18.558,316.857 14.193,303.248 4.674 C 296.695 0.090,297.095 -0.060,297.701 6.750 C 298.555 16.343,291.537 22.819,284.255 19.158 C 282.190 18.120,278.813 16.725,276.750 16.058 C 271.418 14.333,271.797 11.734,278.250 5.762 L 283.500 0.904 279.000 1.564 C 257.985 4.646,246.715 8.281,238.329 14.682 L 234.155 17.869 232.077 11.029 C 230.935 7.267,230.000 3.214,230.000 2.021 C 230.000 -5.462,224.001 4.704,221.621 16.222 L 220.438 21.943 215.245 14.222 C 206.542 1.281,203.694 -1.282,201.392 1.750 C 200.127 3.417,200.062 3.417,200.032 1.750 C 200.014 0.788,199.498 0.000,198.883 0.000 C 198.173 0.000,198.036 0.819,198.506 2.250 C 198.912 3.488,199.465 8.316,199.735 12.981 L 200.224 21.461 195.696 17.287 C 187.644 9.866,174.567 4.382,158.250 1.585 C 143.584 -0.928,141.462 -0.263,149.367 4.369 C 155.166 7.767,163.690 17.216,164.895 21.582 C 166.021 25.658,165.243 32.004,163.619 31.991 C 157.534 31.940,140.164 16.021,135.532 6.250 C 132.276 -0.617,129.668 -1.888,127.975 2.565 M134.123 8.079 C 138.213 15.753,148.726 26.378,157.048 31.250 C 160.572 33.313,163.070 35.000,162.599 35.000 C 157.793 35.000,141.232 21.095,135.099 11.910 C 131.919 7.149,131.024 6.348,130.551 7.838 C 128.963 12.842,132.701 23.312,138.506 30.122 C 141.262 33.356,140.907 33.117,137.145 29.209 C 130.387 22.187,127.443 12.411,129.630 4.250 C 130.450 1.190,130.451 1.191,134.123 8.079 M214.131 15.878 C 216.809 19.936,218.971 23.986,218.937 24.878 C 218.894 25.961,218.570 25.746,217.963 24.234 C 216.236 19.936,208.889 9.951,207.902 10.561 C 207.358 10.897,206.321 10.682,205.599 10.082 C 204.357 9.052,203.109 14.744,202.619 23.667 C 202.554 24.858,202.321 25.654,202.102 25.435 C 201.785 25.118,201.632 5.062,201.926 2.304 C 202.098 0.683,209.635 9.064,214.131 15.878 M162.162 4.435 C 180.026 7.927,199.010 18.415,198.996 24.783 C 198.994 25.898,198.304 25.371,197.029 23.280 C 194.396 18.961,188.415 14.775,179.700 11.151 C 171.744 7.843,165.458 6.098,168.000 7.904 C 169.190 8.749,168.840 8.973,166.307 8.985 C 164.167 8.995,162.620 8.295,161.617 6.863 C 160.479 5.239,159.446 4.860,157.310 5.286 C 155.632 5.620,153.718 5.272,152.559 4.423 C 149.917 2.486,152.211 2.489,162.162 4.435 M231.884 19.945 C 231.792 21.968,231.675 22.084,231.319 20.500 C 229.199 11.061,226.742 9.412,224.985 16.250 C 223.473 22.131,223.170 22.805,223.076 20.500 C 223.031 19.400,223.981 15.169,225.187 11.099 L 227.381 3.697 229.691 10.543 C 230.961 14.309,231.948 18.539,231.884 19.945 M274.428 6.672 C 271.354 9.989,270.608 12.828,271.269 18.694 C 271.586 21.510,271.447 22.737,270.908 21.885 C 270.425 21.123,270.024 18.363,270.015 15.750 C 269.998 10.463,270.082 10.550,266.550 12.159 C 264.125 13.264,260.679 12.733,254.232 10.259 C 253.251 9.882,252.924 10.068,253.350 10.758 C 254.049 11.888,250.294 13.628,249.301 12.634 C 248.280 11.613,240.939 16.060,237.076 20.041 C 234.963 22.219,232.932 24.000,232.562 24.000 C 232.192 24.000,233.744 22.022,236.009 19.605 C 243.524 11.587,256.468 6.547,275.702 4.150 C 276.363 4.067,275.790 5.202,274.428 6.672 M311.750 13.865 C 313.686 15.953,313.977 17.284,313.838 23.396 L 313.677 30.500 313.088 23.161 C 312.584 16.870,312.125 15.501,309.874 13.566 C 307.065 11.152,301.000 11.070,301.000 13.447 C 301.000 17.867,288.728 25.069,279.000 26.357 C 275.306 26.847,275.665 26.634,281.000 25.171 C 294.490 21.473,300.000 16.875,300.000 9.317 L 300.000 4.904 304.750 8.171 C 307.363 9.968,310.512 12.531,311.750 13.865 M161.407 10.451 C 167.817 18.274,170.185 25.505,167.974 30.500 C 167.364 31.876,167.264 31.217,167.650 28.385 C 168.365 23.153,165.812 17.227,160.053 10.750 C 157.731 8.137,156.264 6.000,156.795 6.000 C 157.325 6.000,159.400 8.003,161.407 10.451 M281.923 20.282 L 285.346 21.765 281.923 22.457 C 280.040 22.838,277.762 23.355,276.859 23.607 C 275.524 23.980,273.000 19.934,273.000 17.421 C 273.000 16.989,278.099 18.624,281.923 20.282 M275.158 20.456 C 275.346 21.363,275.837 22.082,276.250 22.053 C 276.663 22.024,277.990 22.000,279.200 22.000 C 281.794 22.000,280.611 20.561,277.158 19.516 C 275.304 18.954,274.887 19.150,275.158 20.456 M136.500 33.642 C 138.150 34.405,138.600 34.738,137.500 34.382 C 127.326 31.088,113.393 33.238,105.812 39.272 L 100.500 43.500 103.500 43.757 C 110.090 44.321,123.251 50.082,121.638 51.696 C 121.416 51.917,119.545 50.952,117.480 49.551 C 112.562 46.214,106.598 44.674,101.010 45.298 L 96.500 45.803 101.500 41.363 C 112.177 31.881,126.068 28.817,136.500 33.642 M337.767 33.512 C 332.825 36.871,328.888 43.844,327.991 50.827 C 327.270 56.440,327.261 56.453,327.153 52.000 C 327.021 46.573,329.919 39.736,334.253 35.250 L 337.392 32.000 333.446 32.006 C 327.437 32.014,322.003 33.848,316.652 37.672 C 310.528 42.050,309.713 41.631,315.599 37.131 C 321.538 32.590,326.173 31.096,334.482 31.044 L 341.464 31.000 337.767 33.512 M69.979 52.490 C 83.120 59.148,99.724 60.119,119.500 55.383 C 121.047 55.013,121.160 55.113,120.000 55.823 C 108.863 62.641,79.045 59.848,64.648 50.638 C 52.406 42.807,63.558 62.533,76.112 70.916 C 79.476 73.162,81.815 75.000,81.310 75.000 C 74.346 75.000,59.396 57.159,57.429 46.500 L 56.690 42.500 60.809 46.215 C 63.075 48.258,67.201 51.082,69.979 52.490 M280.000 51.708 C 280.000 52.459,279.102 51.665,274.958 47.250 L 270.500 42.500 275.250 46.958 C 277.863 49.410,280.000 51.548,280.000 51.708 M249.563 49.250 L 252.500 52.500 249.250 49.563 C 246.221 46.825,245.540 46.000,246.313 46.000 C 246.485 46.000,247.948 47.462,249.563 49.250 M345.937 59.000 C 346.039 67.809,344.469 70.917,335.710 79.250 C 331.230 83.513,327.186 87.000,326.725 87.000 C 326.264 87.000,329.036 84.282,332.886 80.960 C 343.498 71.805,346.621 64.456,344.563 53.486 L 343.867 49.776 341.574 51.931 C 339.288 54.078,329.136 58.469,328.328 57.661 C 328.094 57.427,330.251 56.395,333.122 55.368 C 335.993 54.341,339.727 52.150,341.421 50.500 L 344.500 47.500 345.192 51.000 C 345.573 52.925,345.908 56.525,345.937 59.000 M253.947 75.338 C 253.701 75.557,252.414 74.333,251.086 72.618 L 248.672 69.500 251.533 72.220 C 253.106 73.716,254.193 75.119,253.947 75.338 M70.000 79.054 C 58.969 79.667,54.762 80.370,47.000 82.900 C 38.487 85.674,30.505 89.255,36.750 87.498 C 38.844 86.909,39.000 87.178,39.000 91.365 C 39.000 95.161,39.352 95.973,41.250 96.555 C 45.652 97.905,46.583 102.625,42.304 101.899 C 39.702 101.458,37.952 102.110,38.676 103.250 C 39.112 103.938,39.476 104.743,39.485 105.040 C 39.493 105.337,40.538 106.912,41.806 108.540 C 43.075 110.168,45.100 113.034,46.306 114.908 C 48.956 119.025,52.294 121.603,57.558 123.598 L 61.500 125.092 58.025 124.526 C 52.765 123.669,47.123 119.188,43.725 113.167 C 40.455 107.372,35.767 104.391,31.677 105.504 C 30.479 105.830,31.300 104.952,33.500 103.553 C 35.700 102.153,38.962 100.732,40.750 100.393 C 46.076 99.384,44.443 98.000,37.926 98.000 C 31.730 98.000,18.840 101.612,14.127 104.668 C 7.945 108.678,17.523 97.441,24.580 92.406 C 38.960 82.144,52.030 78.298,72.500 78.302 L 83.500 78.304 70.000 79.054 M111.000 78.474 C 111.000 78.735,109.650 79.647,108.000 80.500 C 104.239 82.445,104.012 81.600,107.750 79.572 C 110.893 77.867,111.000 77.831,111.000 78.474 M361.819 87.250 C 357.189 96.865,348.827 106.000,344.654 106.000 C 344.079 106.000,345.653 104.704,348.151 103.119 C 352.981 100.056,355.395 97.155,358.939 90.153 C 361.733 84.634,361.455 84.447,354.902 87.430 C 351.931 88.782,347.025 90.139,344.000 90.444 C 338.615 90.988,338.646 90.967,345.500 89.434 C 349.350 88.572,355.200 86.354,358.500 84.503 C 361.800 82.653,364.574 81.108,364.664 81.070 C 364.754 81.031,363.474 83.813,361.819 87.250 M336.750 91.689 C 335.788 91.941,334.212 91.941,333.250 91.689 C 332.288 91.438,333.075 91.232,335.000 91.232 C 336.925 91.232,337.712 91.438,336.750 91.689 M58.750 98.739 C 51.107 99.219,51.499 100.468,60.096 103.029 C 63.998 104.191,66.992 105.341,66.748 105.585 C 66.075 106.259,53.171 102.086,52.483 100.973 C 51.221 98.931,53.321 98.007,58.809 98.189 L 64.500 98.378 58.750 98.739 M74.250 99.723 C 72.463 99.945,69.537 99.945,67.750 99.723 C 65.963 99.502,67.425 99.320,71.000 99.320 C 74.575 99.320,76.037 99.502,74.250 99.723 M337.497 104.408 C 339.145 105.552,341.170 106.359,341.997 106.202 C 343.273 105.960,343.285 106.061,342.075 106.876 C 341.059 107.559,339.624 107.085,337.075 105.222 C 330.354 100.312,330.683 99.678,337.497 104.408 M342.500 112.601 C 345.104 114.959,345.453 115.490,343.500 114.122 C 341.850 112.967,338.700 110.391,336.500 108.399 C 333.896 106.041,333.547 105.510,335.500 106.878 C 337.150 108.033,340.300 110.609,342.500 112.601 M382.167 115.750 C 381.089 117.813,379.489 121.531,378.611 124.012 C 376.631 129.614,372.674 134.481,366.514 138.892 C 362.484 141.778,361.955 141.952,362.970 140.056 C 363.626 138.831,364.414 138.080,364.721 138.388 C 366.903 140.570,377.102 127.868,378.481 121.250 C 379.283 117.406,379.147 117.374,373.740 120.133 C 371.066 121.497,367.205 122.377,363.029 122.574 L 356.500 122.883 362.500 122.108 C 369.265 121.235,376.054 118.414,380.500 114.627 C 384.413 111.294,384.475 111.336,382.167 115.750 M363.000 119.000 C 362.175 119.533,359.700 119.912,357.500 119.843 L 353.500 119.716 357.500 119.000 C 363.951 117.845,364.787 117.845,363.000 119.000 M59.350 128.543 C 57.618 129.303,54.582 130.033,52.604 130.166 C 48.490 130.443,49.136 131.785,54.294 133.674 C 56.676 134.546,56.965 134.867,55.421 134.924 C 53.858 134.981,44.003 129.573,43.999 128.656 C 43.999 128.570,46.155 128.650,48.791 128.832 C 51.427 129.015,55.140 128.718,57.042 128.173 C 61.965 126.760,63.030 126.931,59.350 128.543 M317.947 137.338 C 317.701 137.557,316.414 136.333,315.086 134.618 L 312.672 131.500 315.533 134.220 C 317.106 135.716,318.193 137.119,317.947 137.338 M356.750 132.689 C 355.788 132.941,354.212 132.941,353.250 132.689 C 352.288 132.438,353.075 132.232,355.000 132.232 C 356.925 132.232,357.712 132.438,356.750 132.689 M58.593 136.619 C 57.953 138.286,59.597 138.270,64.500 136.560 C 65.820 136.099,65.650 136.383,64.000 137.395 C 62.625 138.239,59.700 138.915,57.500 138.897 C 53.899 138.868,53.725 138.756,55.750 137.780 C 56.987 137.183,58.000 136.313,58.000 135.847 C 58.000 135.381,58.273 135.000,58.607 135.000 C 58.941 135.000,58.934 135.729,58.593 136.619 M66.105 139.914 C 64.987 140.622,65.086 140.880,66.605 141.212 C 67.699 141.451,66.860 141.838,64.620 142.127 L 60.740 142.629 62.981 140.814 C 64.213 139.816,65.734 139.007,66.361 139.015 C 67.026 139.024,66.920 139.398,66.105 139.914 M75.250 140.706 C 74.013 140.944,71.987 140.944,70.750 140.706 C 69.513 140.467,70.525 140.272,73.000 140.272 C 75.475 140.272,76.487 140.467,75.250 140.706 M224.539 158.635 C 223.792 162.626,220.034 168.163,212.721 176.046 C 205.753 183.556,205.866 183.815,214.628 180.452 C 231.255 174.070,238.595 170.218,244.831 164.600 L 247.163 162.500 246.429 165.500 C 245.153 170.721,242.304 180.425,241.455 182.442 C 240.819 183.956,241.505 183.705,244.569 181.304 C 246.731 179.609,251.200 177.243,254.500 176.046 C 257.800 174.848,261.503 173.219,262.729 172.425 C 265.393 170.700,266.369 172.939,265.820 179.512 L 265.500 183.334 254.162 187.124 C 241.494 191.358,229.068 197.162,226.430 200.077 C 224.177 202.567,224.601 202.511,231.626 199.391 C 243.056 194.314,245.178 193.948,237.670 198.347 C 232.982 201.095,229.332 204.577,232.359 203.416 C 234.275 202.681,234.414 203.359,232.919 206.151 C 230.978 209.778,232.821 209.329,237.707 204.983 C 244.279 199.138,252.060 195.686,259.814 195.175 L 266.128 194.759 264.542 198.553 C 263.671 200.639,262.462 202.944,261.856 203.673 C 259.909 206.020,262.098 205.100,268.268 200.980 C 281.094 192.415,282.438 208.144,269.853 219.514 C 267.636 221.517,266.047 223.380,266.322 223.655 C 266.830 224.164,275.941 221.952,279.397 220.481 C 281.002 219.797,280.887 220.272,278.647 223.569 C 275.144 228.724,275.264 229.022,280.250 227.550 C 282.587 226.859,285.804 225.978,287.398 225.591 L 290.297 224.887 289.664 230.938 C 287.829 248.496,281.593 252.443,256.630 251.842 C 245.173 251.567,241.888 251.160,239.738 249.750 C 236.537 247.650,235.333 247.491,236.897 249.375 C 239.232 252.189,246.447 253.196,261.623 252.825 C 278.742 252.406,281.568 251.447,288.795 243.607 C 292.937 239.114,294.432 236.567,291.500 239.000 C 290.170 240.104,290.171 239.835,291.507 236.637 C 292.337 234.652,293.499 230.772,294.090 228.014 C 294.682 225.256,295.621 223.000,296.178 223.000 C 296.736 223.000,298.498 222.069,300.096 220.932 C 303.593 218.441,303.944 219.939,300.996 224.774 C 298.357 229.102,298.452 229.335,302.093 227.452 C 306.169 225.344,306.131 225.084,303.361 236.000 C 293.183 276.118,285.770 288.388,261.060 306.016 C 222.819 333.297,205.682 333.231,160.598 305.629 C 129.007 286.288,125.615 280.466,117.005 230.807 C 115.413 221.626,113.347 212.638,112.414 210.834 C 110.721 207.560,110.723 207.550,113.609 205.555 C 118.524 202.158,130.411 189.619,132.177 185.967 C 133.100 184.060,135.389 179.121,137.264 174.990 C 141.001 166.758,145.685 161.323,149.827 160.411 C 160.914 157.970,164.938 156.570,168.059 154.067 L 171.617 151.213 170.329 157.357 C 168.286 167.104,169.182 176.303,171.472 169.088 C 171.806 168.036,173.319 165.615,174.835 163.707 L 177.592 160.239 177.262 169.441 C 176.771 183.160,177.606 184.490,182.551 177.871 C 187.711 170.963,197.146 163.439,208.075 157.514 C 212.913 154.892,218.587 151.087,220.685 149.058 L 224.500 145.369 224.813 150.435 C 224.985 153.221,224.861 156.911,224.539 158.635 M71.502 155.702 C 69.853 156.594,66.343 158.085,63.701 159.015 C 58.065 161.000,58.322 160.617,59.792 164.834 C 61.149 168.726,63.386 168.662,72.750 164.464 C 78.885 161.714,79.780 162.051,74.072 164.963 C 61.964 171.140,43.349 173.610,29.643 170.857 C 22.772 169.477,22.762 169.493,31.681 167.634 C 35.606 166.815,40.161 165.451,41.802 164.602 C 43.443 163.754,49.222 161.884,54.643 160.447 C 60.064 159.010,66.300 157.010,68.500 156.002 C 73.478 153.721,75.546 153.514,71.502 155.702 M84.000 165.461 C 84.000 166.446,74.461 177.664,71.073 180.664 L 67.500 183.828 79.500 183.478 L 91.500 183.129 80.500 183.986 C 74.450 184.457,67.700 185.102,65.500 185.420 C 62.164 185.901,61.832 185.806,63.500 184.851 C 67.681 182.456,76.354 174.473,79.819 169.832 C 83.276 165.202,84.000 164.445,84.000 165.461 M142.000 179.784 C 142.000 180.236,145.037 181.596,148.750 182.805 C 152.463 184.014,157.750 186.069,160.500 187.372 L 165.500 189.740 161.500 190.442 C 145.090 193.321,138.457 196.588,133.264 204.349 C 125.576 215.837,126.209 234.275,134.602 243.326 C 136.032 244.869,137.009 246.325,136.772 246.562 C 136.535 246.798,135.286 245.869,133.996 244.496 C 131.134 241.450,128.925 241.135,131.595 244.154 C 140.883 254.656,175.135 257.596,187.000 248.909 C 188.264 247.984,188.220 247.902,186.717 248.387 C 156.495 258.143,138.356 253.260,133.432 234.043 C 125.317 202.364,163.586 182.357,186.370 206.368 C 191.263 211.523,192.141 211.016,189.459 204.586 C 188.894 203.233,189.003 202.884,189.830 203.395 C 191.550 204.458,191.256 202.458,189.476 200.980 C 186.901 198.843,188.487 198.851,193.503 201.001 C 203.027 205.084,195.993 200.116,183.627 194.026 C 169.378 187.010,142.000 177.643,142.000 179.784 M266.075 186.275 C 266.034 186.674,266.000 187.675,266.000 188.500 C 266.000 189.566,264.914 190.002,262.250 190.006 C 260.188 190.009,256.770 190.491,254.656 191.078 C 248.376 192.822,249.534 191.575,257.265 188.269 C 264.348 185.240,266.226 184.815,266.075 186.275 M167.418 203.931 C 158.941 207.514,156.754 220.515,163.707 225.984 C 170.921 231.659,182.370 225.099,177.051 218.338 C 175.044 215.787,175.460 212.560,178.226 209.228 C 180.783 206.147,172.167 201.924,167.418 203.931 M246.783 204.750 C 237.705 215.158,247.127 232.981,257.425 224.880 L 260.120 222.760 258.060 220.841 C 255.294 218.265,255.260 212.479,258.000 210.768 C 260.707 209.077,260.517 206.569,257.535 204.615 C 254.261 202.470,248.712 202.539,246.783 204.750 M327.766 216.979 C 328.799 231.407,313.418 257.167,300.565 262.537 C 295.733 264.556,295.741 264.572,298.248 257.483 C 300.064 252.348,300.941 251.208,304.432 249.436 C 307.638 247.810,309.106 246.115,311.358 241.436 C 315.661 232.499,318.076 226.000,317.094 226.000 C 316.612 226.000,315.465 227.912,314.545 230.250 C 309.654 242.683,302.000 253.528,302.000 248.024 C 302.000 245.820,304.809 240.421,307.379 237.686 C 309.825 235.083,309.910 234.709,308.512 232.713 C 305.203 227.989,316.716 210.379,320.092 215.000 C 320.997 216.237,321.079 216.165,320.563 214.587 C 320.138 213.287,320.813 211.761,322.671 209.822 C 326.147 206.194,327.089 207.518,327.766 216.979 M317.189 221.250 C 318.503 225.188,320.000 227.060,320.000 224.765 C 320.000 222.248,318.164 218.000,317.077 218.000 C 316.469 218.000,316.511 219.221,317.189 221.250 M114.309 223.309 C 114.002 223.806,113.386 223.624,112.941 222.905 C 112.496 222.185,112.384 221.188,112.691 220.691 C 112.998 220.194,113.614 220.376,114.059 221.095 C 114.504 221.815,114.616 222.812,114.309 223.309 M111.968 224.809 C 111.951 225.739,111.276 227.374,110.468 228.441 C 108.143 231.516,108.717 233.601,112.873 237.172 C 116.094 239.941,120.476 250.000,118.461 250.000 C 115.577 250.000,108.613 240.929,104.967 232.424 C 102.329 226.270,102.405 224.004,105.250 223.985 C 106.487 223.976,108.154 223.556,108.952 223.051 C 110.777 221.896,112.009 222.615,111.968 224.809 M101.000 225.884 C 101.000 231.614,113.185 250.599,117.238 251.183 C 119.318 251.482,123.066 260.267,121.698 261.635 C 119.265 264.068,100.334 245.236,95.480 235.554 C 91.520 227.655,92.001 224.000,97.000 224.000 C 100.251 224.000,101.000 224.353,101.000 225.884 M116.535 237.791 C 116.379 237.951,114.853 236.905,113.143 235.467 L 110.035 232.852 112.217 228.676 L 114.399 224.500 115.609 231.000 C 116.274 234.575,116.691 237.631,116.535 237.791 M306.874 233.348 C 307.724 234.373,307.555 235.093,306.170 236.346 C 304.440 237.912,304.369 237.844,304.787 234.998 C 305.290 231.572,305.356 231.520,306.874 233.348 M209.998 253.332 C 206.147 256.334,205.141 263.105,207.884 267.566 C 208.861 269.156,209.002 268.389,208.677 263.250 C 208.460 259.813,208.653 257.000,209.106 257.000 C 209.992 257.000,212.381 253.048,211.829 252.496 C 211.647 252.313,210.823 252.689,209.998 253.332 M213.035 253.934 C 212.466 254.998,212.000 256.083,212.000 256.346 C 212.000 257.312,215.058 256.337,216.260 254.988 C 217.223 253.908,217.076 253.919,215.606 255.040 C 213.857 256.373,213.766 256.312,214.423 254.242 C 215.297 251.490,214.444 251.301,213.035 253.934 M239.686 289.606 C 231.701 293.934,211.430 295.216,195.162 292.421 C 184.201 290.539,180.498 291.067,190.500 293.087 C 207.079 296.434,236.013 294.481,242.500 289.576 C 245.087 287.620,243.314 287.639,239.686 289.606 M159.375 306.798 C 159.646 307.237,159.510 308.175,159.073 308.882 C 158.493 309.821,158.130 309.604,157.732 308.085 C 157.206 306.073,158.366 305.165,159.375 306.798 M162.314 314.560 C 163.516 314.920,166.975 317.093,170.000 319.389 C 179.957 326.946,194.402 335.846,200.192 337.991 L 205.883 340.100 209.902 338.050 C 212.112 336.923,214.501 336.010,215.210 336.022 C 215.920 336.034,214.665 336.878,212.421 337.896 C 203.296 342.041,202.130 347.296,207.629 359.500 C 214.430 374.592,214.632 378.384,208.910 383.578 C 207.169 385.158,185.350 367.860,186.578 365.873 C 186.892 365.366,186.599 365.074,185.926 365.225 C 185.130 365.404,183.460 360.602,181.133 351.446 L 177.562 337.393 168.781 331.743 L 160.000 326.092 159.986 320.796 C 159.979 317.883,159.818 314.600,159.630 313.500 C 159.441 312.400,159.476 312.041,159.708 312.703 C 159.939 313.365,161.112 314.200,162.314 314.560 M192.000 370.360 C 204.718 382.520,207.863 384.194,210.284 380.096 C 212.510 376.329,212.492 376.274,209.213 376.755 C 207.319 377.033,203.872 375.843,198.463 373.045 C 194.083 370.779,191.175 369.571,192.000 370.360 " stroke="none" fill="#000000" fill-rule="evenodd"></path></g></svg>