<svg xmlns="http://www.w3.org/2000/svg">
<symbol id="icon-cat1" viewBox="0 0 400 400">
<path d="M279.9 7.5c17.8-8.9 22.4-9.3 27.9-2.2 10 12.6 11 55.9 2 83.7-3.6 11.3-4.7 20.4-5.6 48-1.3 36.4-1.2 36.8 8.8 37.1 3.3.1 9.6 1.4 14 2.9 7.9 2.7 7.8 2.7-6.2 1.6-23.4-1.8-29.6 4.4-10.3 10.3 12.3 3.7 22.2 8.9 17.3 9-1.8.1-7.1-1.2-11.8-2.9-21.5-7.6-28.3-2.2-8.8 7.1 16.6 7.9 15.2 10.1-2.1 3.1-7.2-2.8-14.3-5.2-15.8-5.2-4 0-26.1 17.8-27.8 22.4-3.7 9.7 5.1 46 12.1 50.4 2.9 1.7 17.4-14.9 29.5-33.8 23.6-36.9 52.3-58.8 66.8-51.1 6.8 3.7 4.8 8.9-8.5 22.4-13.5 13.5-28.8 37.7-41.7 65.6-8.9 19.3-14.2 25.7-29 35.3-7.4 4.8-10.7 8.3-11.4 12.3-3.4 18.3-3.4 21.3 0 30.8 5 13.9.3 19.9-17.8 22.7-6.2 1-7.5 2-7.5 5.8 0 2.6-1.9 7-4.1 9.9-7.5 9.5-37.9 5.7-37.9-4.8 0-5.1 3.4-5 5 .1 2.8 8.9 14 10 15.6 1.6l.9-4.6 1.5 4.5c4.2 12.7 15.6.7 13.8-14.5-1.2-9.7-1.1-9.9 2.1-5.5 3.8 5.1 7.1 4.3 7.1-1.6 0-2.2.9-3.9 2-3.9s2 1.7 2 3.7.5 4.2 1.2 4.8c2.2 2.3 6.8-.9 6.8-4.7 0-4.3 2.1-4.9 5.6-1.4 1.9 1.9 2.4 1.2 2.4-2.9 0-13.4-22.4-16.1-27.9-3.4-2.8 6.3-1.6-19 2.8-59.8 2.6-23.3 2.7-29.5.6-33.2-1.4-2.5-4.1-7.5-6.2-11.1-2-3.5-4.1-11.3-4.7-17.2-.7-6-1.3-10.8-1.4-10.8-.1 0-6.5 1.3-14.2 3-20.2 4.2-55.9 3.8-79-1-10.4-2.2-19.7-4-20.5-4-.8 0-1.5 3.5-1.5 7.7s-1.8 12.9-4 19.3c-7.1 20.5-4.7 40.6 9.9 85.6l8 24.4-4.7 6.7c-4.5 6.3-4.6 6.9-1.6 13 5.2 10.7 8.9 11.2 12.8 1.6l2.2-5.3 1.3 5c1.9 7.2 12.4 7.2 14.1 0 .8-3.3 1.7-4.2 2.7-2.5 5.1 8.2 5.9 1.2 4.6-40-.7-23.4-.5-43.7.4-45.2 2.6-4 4.3 9.4 4.3 35.1 0 27.1 1.4 31.6 10.3 33.2 3.7.7 8.9 1.9 11.5 2.6l4.8 1.4-1.4-26.8c-.8-14.7-2.2-30.8-3.1-35.8-2-10.4-1.4-12.2 2-5.8 1.3 2.4 3.6 22.1 5 43.6 1.4 21.6 3.2 41 4.1 43.2.8 2.2-2.3-.7-6.9-6.5-12.5-15.6-18.7-16.2-26.1-2.3-10.8 20.3-38.9 23.1-47.6 4.8-2.9-6.1-4.3-7-10.7-7-9.4 0-13-4.2-15.6-18-1.2-6-3.9-19.5-6.2-30-6.9-32.2-4.7-50.2 8.6-71.8 6.6-10.6 7.3-13.2 7.3-25.8v-14l-10.1-8.5-10.2-8.5-18.1 5.4c-17.4 5.2-24.2 5.8-16.1 1.5 11.3-6.1 68.4-17.9 72.3-14.9 2.2 1.6-2.6 3.1-14.8 4.6-16.8 2.1-17.6 3-9 10.2 34.5 28.9 107.8 32 156.3 6.5 18.1-9.5 22.3-14.1 14.4-15.7-15.7-3.3-17.5-4.9-4.2-3.9 7.6.6 13.5.2 13.5-.8 0-2.8-5.3-4.3-14.7-4.3-4.5 0-9.6-.9-11.3-2-2.1-1.3 2.8-1.9 15.5-2 15.1 0 18.5-.6 18.5-3s-3.3-3-17.5-3.1c-19.4-.2-17.8-3.5 1.8-3.8 21.5-.2 22.3-2.5 5.2-14.7-12.5-8.8-12.6-8.9-36.8-11-13.4-1.2-27.7-3.6-31.8-5.3l-7.4-3.1 1.3-15.3c.8-8.4 3.1-19.6 5.1-25l3.7-9.8-12.9-11.4c-17.6-15.6-17.7-15.6-36.2 5.4l-8.4 9.7 3.9 11.5c10.9 31.5 3.2 41.9-33 44.8-16.6 1.3-19.1 2-31.5 9.9-19 12-17.8 14.2 7.5 14.2 8.1 0 15.3.9 16 2 .8 1.3-5.4 2-17 2-25.1 0-24.2 4.5 1.2 6.1 9.8.6 16.9 1.3 15.8 1.5-1.1.3-7.8 1.4-14.9 2.5-7 1.2-13.7 2.7-14.9 3.4-1.1.7-11.5 1.4-23.1 1.7l-21.1.4 16-3.9c24.7-5.9 24.4-7.6-2-11.1l-12-1.5 15-1.1c12.1-.8 14.8-1.6 14.2-4-.5-1.6-2.1-14.2-3.6-28-1.5-13.7-4.2-30.8-6-38-7.1-28.8-8.5-37.8-8.5-56C62 15.1 68.6 3.6 86.2 7.6c15.4 3.6 44.7 18.6 59.6 30.7l12.7 10.3 30.7-1.3 30.6-1.2 22.6-15.5c12.4-8.6 29.3-18.9 37.5-23.1m25 30.5l.1-29-5.2-.6c-6.5-.8-14.5 5.7-28.8 23.4-5.9 7.3-13.4 16.5-16.8 20.5l-6.1 7.3 6.4 3.1c6.9 3.3 24.5 20.6 35.5 35 4.6 6 7 7.8 8.1 6.1 3.3-5.3 6.6-37.9 6.8-65.8M98.2 23.8C74.2 8.1 72 9.2 72.1 36.8c.1 53.5 9 92.1 14.9 65.1 1.4-6.3 29.6-37.9 33.9-37.9 1.3 0 4.5-2.2 7-4.9l4.5-4.8-9.6-10.3c-5.3-5.7-16.4-14.8-24.6-20.2m170.3 62.3c-19.5-12.9-40.3-5.3-51.7 18.9-12.7 26.7-3.6 39.7 27.6 39.5 40.9-.3 56.1-37.2 24.1-58.4m-121.2 4.5C125.7 76 98 91.7 98 118.7c0 21.7 31.9 35.5 55.5 24 18.1-8.9 14.6-38.1-6.2-52.1m79.1 9.1c19.7-18.5 51.9 11.4 34.5 32-12.7 15.1-37.6 11.4-42-6.2-2.2-9 .9-19.7 7.5-25.8m-99.4-1c14.8-6.7 30.8 3.5 32.5 20.6 1.1 12.2-4 19.6-15.7 22.8-29.5 7.9-44.5-30.7-16.8-43.4m51.8 49.5c4.9-5.4 3.3-5.7 25.7 5.3l19.3 9.5-15.7 31c-19.9 39.2-18.3 39.2-38.2 0l-15.7-31 10.4-5.3c5.7-2.9 12.1-7.2 14.2-9.5m27.5 21c-5.9-1.7-21.2-2.9-25.3-2-2.2.5-5.9 1.4-8.3 1.9-2.3.5-4.8 2.3-5.5 4.1-1.8 4.8 17.7 44.8 21.8 44.8 8.8 0 25.3-46.5 17.3-48.8m-92.2 123.9c-2.2-5.6-3.4-6-8.4-3-3.1 1.7-2.8 3 2.7 13.7 4 7.8 6.5 16.2 7.4 24.9 1.6 14.9 2.3 16.2 7.9 14.4 3.9-1.2-1.2-27.7-9.6-50m144.7 27.3c2.6-16.8 3.2-25.2 1.8-26.6-1.4-1.4-2.9 5.1-4.6 20.7-3.4 31.9-1.7 35.5 2.8 5.9m-126.9 34.1c-3.9-7.1-17.2-8.8-22.5-2.9-3.7 4.1-4.5 8.4-1.5 8.4 1 0 1.7 2.5 1.5 5.5-.3 4.6.5 5.6 5.1 6.1 4.2.5 5.5-.2 5.5-3 .1-3 .4-3.1 2-.6 4.8 7.5 14.4-5.6 9.9-13.5" />
</symbol>
<symbol id="icon-cat2" viewBox="0 0 400 400">
<path d="M52.4 4.4c-4.7 4.7-2.2 12.5 14.5 44.3C83.4 80.3 96 108.8 96 114.5c0 2.2-4.5 3.2-19.5 4.2-22.2 1.5-45.3 5.8-49.6 9.4-4 3.3-3.8 4.9 3.9 23.5 11.9 28.6 20.6 42.6 35.8 57.4L81 223l-1 18c-3.4 61.7 27.5 126.4 50.2 105.2 5-4.6 9.8-20 9.8-31.3v-8.4l17.4 8.8c9.6 4.8 19.3 8.7 21.5 8.7 10.7.1 12.9 2.4 26.2 26.7 25.4 46.5 39.3 57.8 53.2 43.3 3.2-3.3 5.7-8.2 5.7-11 0-3.8 1-5 4.2-5 12.3 0 25.4-14.3 19.5-21.4-7.4-8.9 8.1-67.6 20.6-78.2 12.1-10.2 23.3-31.1 33.4-62.5 7.3-22.6-8.1-69.7-28-85.6-8.4-6.8-12-16.7-13.8-39C298.2 71.6 282 30 276 30c-1.1 0-2-1.1-2-2.6 0-1.4-3.9-7-8.7-12.4l-8.7-9.9-8.2 5.4c-14.9 9.9-37.2 40.7-48.6 67.5-5.4 12.6-5.8 13-18.4 18.1-7 2.9-15.9 7.1-19.6 9.4-4.1 2.5-11 4.4-17.4 4.7l-10.6.6-13.5-27.1C92.9 29 62.9-6.1 52.4 4.4m212 23.1C280.1 48.2 289.5 70.8 292 94c.8 8.3 2.3 16.8 3.1 19 1.5 3.7 1.3 3.8-2.3.8-5.2-4.3-24.5-13-34.5-15.7-4.6-1.1-11.9-3-16.4-4.2-4.4-1.1-7.6-2.8-7.1-3.6.6-.9 3.7-14.7 7-30.8 8.8-43.4 11.3-46.9 22.6-32m30 97.4c20.8 8.7 26.3 48.1 8.1 58.1-42.9 23.7-59.7 16.6-58.4-24.7 1.1-31.7 21.7-45.4 50.3-33.4m-88.4 8.8c7.2 2 18 5.3 24.1 7.4l11.1 3.7-.8 16.1c-1.9 40.2 24.7 52.5 59.2 27.3 4.1-2.9 6.2-3.2 12.6-1.5 6.2 1.7 9.1 1.4 14.9-1.3 11.3-5.4 6.4-.9-6.1 5.7-11.8 6.1-20 12.6-18.3 14.3.6.5 4.9-1.7 9.7-4.9 8.4-5.8 24.4-14.5 26.5-14.5 3.7 0 .6 11.9-3.4 13.1-8.5 2.7-25.3 10.9-26.6 13-2.5 4.2.3 3.5 14.1-3.2 17.1-8.4 17.5-8.4 16.3-.7-1.2 7.3.3 6.2-13.8 10.5-6.4 2-11.1 4.3-10.5 5.3.6 1 4.8.5 9.3-1.1 10.2-3.6 14.5-3.7 12.4-.4-.9 1.4-1.8 3.7-2 5.1-7.1 47.3-99.6 106.9-145.3 93.6l-7.6-2.2 13.2-13.7c7.3-7.5 12.7-14.2 12-14.9-.7-.7-7.5 5.5-15.2 13.9l-14 15.1-8.9-3.2c-4.9-1.7-8.9-3.6-8.8-4.2 0-1.5 21.4-16.5 32.4-22.9 8.2-4.7 12.2-9.1 8.4-9.1-1.8 0-28.9 17.7-37.5 24.5-6.7 5.3-8.3 5.7-12.7 3.7-7.4-3.3-3.6-8.6 11.3-15.6 1.7-.7 3.9-2.4 5-3.7 1.1-1.3 8.1-4.9 15.5-8 7.4-3.2 13.5-7 13.5-8.4 0-1.8-3.1-1-10.1 2.5-9.3 4.7-9.8 4.8-7.5 1.1 1.4-2.3 3.2-4.1 4.1-4.1.8 0 1.5-1.2 1.5-2.6 0-1.4 2.8-4.2 6.2-6.2 35.3-20.9 39.2-50 9.2-69.2-10.2-6.5-10.9-7.4-9.7-13 1.6-7.6 1.5-13.9-.6-34.5-1.9-19-2.8-18.2 16.9-12.8m-134.7 7.5c31.9 10.5 43.4 16.1 41.7 20.3-7.3 17.4-11.9 39.4-11.9 57-.1 9.4-1.6 12.2-3.8 6.6-.6-1.5-5.9-5.9-11.7-9.7-22-14-49.6-59.6-49.6-81.9 0-2.5 12.6.2 35.3 7.7m191-.9c-11.9 4.4-16.8 22-9.5 34.5 9.3 15.9 25.8 17.2 38 2.9 16.1-18.9-4.6-46.2-28.5-37.4m17.4 5.5c1.6 1 2.5 2.6 2 3.7-.4 1-3.4.2-6.7-1.8-4.9-3-5.3-3.7-2-3.7 2.2.1 5.2.8 6.7 1.8m-93.4 44.6c12.3 2.9 29.7 20.9 29.7 30.8 0 38.1-64.1 62.2-81.8 30.8-19-33.8 12.3-70.8 52.1-61.6m-15.5 5.7c-7.3 2.2-17.3 15.4-17.7 23.4-1.2 26.6 35.3 38.1 48.7 15.5 12.4-21.1-7.5-46-31-38.9m20.3 6.8c3.8 2.9 3.8 3-.2 3-2.3.1-5.9-1.2-8-2.8-3.8-2.9-3.8-3 .2-3 2.3-.1 5.9 1.2 8 2.8m52.9 19c-2.7 2.1-4.3 4.4-3.6 5.2 2.3 2.2 12.6-2.2 13.2-5.8.9-4.4-3.4-4.1-9.6.6m43.3-.4c-.8 1.4-1 3.3-.4 4.3 4.6 7.5-15.2 14-30.1 9.7-3.5-.9-4.3-.2-4.6 4.2-.8 11.9-1.7 14.4-6.7 19-2.9 2.7-8.1 5.5-11.4 6.3-7.2 1.6-10.1 5-4.1 5 10.1 0 24-12.9 24-22.4.1-6.1 3-10.8 4.9-7.8 3.9 6.3 24.2.4 28.9-8.4 2.8-5.2 2.4-14.4-.5-9.9m-189 45.3c2.5 1.8 7 3.2 9.9 3.2 5.1 0 7.4 2.6 24 27.3 1.7 2.6 3.7 4.2 4.3 3.6 1.1-1.2.8 3.5-1.6 24.6-.9 8.1-2.4 12.5-4 12.5-1.5 0-4.1 1.5-6 3.4-2.7 2.7-4 2.8-7.1.9-3-1.8-3.8-1.8-3.9.2-.1 5.5-11.4-10.5-16.7-23.6-3.1-7.6-6.4-15.7-7.4-17.9-2.2-5.1-7.3-35.6-7.7-45.9l-.3-8 6 8.3c3.2 4.5 8 9.6 10.5 11.4m195 31.6c-7.1 11.1-13.7 51.4-9.7 59 3.3 6 3.1 6.6-2.1 6.1-3.7-.4-4.4.3-3.8 4.5.5 4 .2 4.5-1.9 2.5-3.7-3.5-8.5-3.2-7.1.5 1.8 4.6-6.1 3.8-8.6-.9-3.5-6.5-1.7-40.8 3.1-56.4.5-1.8 6.7-7.1 13.8-11.7 7-4.6 14-9.7 15.4-11.5 4-4.8 4.7 1.9.9 7.9m-36.1 21.1c-3.5 15.6-3.8 48.3-.5 53.3 3.7 5.7 4.3 11.2 1.3 11.2-1.1 0-2 1.7-2 3.9 0 2.8-1.1 3.7-4 3.1-2.4-.5-4 .3-4 2 0 14-22.7-11.4-40.2-45-3.7-7.1-8-14.3-9.6-16-2.6-2.6-.7-3.3 16-5.6 10.3-1.5 23.8-4.8 29.8-7.3 14.4-6.1 14.7-6 13.2.4" />
</symbol>
<symbol id="icon-cat3" viewBox="0 0 400 400">
<path d="M230.9 1.5c-6.1 4.4-27 41.2-35.9 63.1-5.4 13.4-7.3 16.1-14.1 19.7-10.5 5.6-23.5 14.6-26.7 18.5-1.5 1.7-3.2 2.8-3.9 2.4-5.7-3.3-86.9-7.5-89.8-4.6-7.9 7.9 17.6 58.4 38.6 76.5 19.3 16.7 22.7 20.4 24.1 26.1 3.6 15.2 15.9 31.8 29 39.1 9.3 5.3 9.6 6.5 1.9 9.6-6.7 2.8-13.4 9.5-11.4 11.5.7.7 3.3-.5 5.8-2.7 8.5-7.5 15.6-10.9 19.8-9.6 3.6 1.1 2.8 2.2-6.1 8.1-5.6 3.8-10.2 7.8-10.2 8.9 0 3.1 1.7 2.3 11.6-5.3 14.2-10.9 15.1-2.2 1.1 10.2-5.3 4.7-9 9.3-8.2 10.2.9.8 5.2-2 9.6-6.3l8.1-7.9-2.9 8c-1.5 4.4-4.6 11.2-6.8 15-2.2 3.9-5.6 11.5-7.6 17s-3.8 10.2-3.9 10.5c-.2.3-7.9 2.4-17.2 4.7-39.8 10-70 37.7-70.6 64.8-.3 13.5 5.7 11.9 20.9-5.9 17.6-20.4 41.1-33.1 61.6-33.1 14.1 0 22 5.1 16.5 10.6-6.5 6.5 4.1 23.4 14.6 23.4 3.6 0 4.8.8 4 2.9-2.9 7.5 8.5 13.6 24.1 12.8 17.3-.9 22.5-4.3 24.4-15.9 1.9-12 19.1-13.5 21.4-1.9 3.7 18.7 41.1 21 47.7 2.9 2-5.8 3.3-6.8 8.9-6.8 12.3 0 19.3-18 9.8-25.1-2.4-1.8-2.3-3 1.1-8 11.5-16.8 11.7-46.9.6-64.3-9.5-14.9-12.5-23.9-13.8-41.3-.6-7.9-1.5-19.4-2.1-25.7-1.6-16.8 1.4-20.5 17.5-21.3 11.7-.5 17.9-2.7 15.2-5.3-.6-.6-6.4-.3-12.8.7-13.2 2.1-13.4 2.1-11.7-2.2.7-1.8 6.8-4.7 14-6.6 7.1-1.9 12.9-4.3 12.9-5.2 0-2.3-1.8-2.2-13.2 1.3-5.4 1.6-9.9 3-10 3-5.5.5 3.6-10.2 10.3-12 4.7-1.4 9.1-3.7 9.7-5.2 1.3-3.5 1.3-3.5-7.5.2-3.9 1.7-7.5 3-8 3-.4 0-1.2-5.2-1.8-11.5-1.4-14.5-7.6-28.9-17.5-40.8-4.8-5.6-8.1-11.9-8.6-16-4.6-39.2-47.9-104.5-62.5-94.2m15.7 15c16.5 19.4 29.5 42.7 39.1 70.1 4.6 13.2 4.5 13.3-5.3 5.5-12.3-9.8-29.7-16.5-46-17.6-12.1-.9-14.4-1.6-13.4-4.1 2-5.2 4.9-19.7 7.1-34.8 4.5-32.1 6.1-33.7 18.5-19.1m28.4 85.9c8.4 3.8 17 18.8 17 29.6 0 30.3-46.2 43.6-58.9 17-14.7-31 11.7-60.4 41.9-46.6m-63.7 7.9l14.3 5.9.7 15.5c1.3 29.6 21.6 43.4 46.4 31.6 6.4-3.1 8.6-3.3 13.5-1.2 5.8 2.4 19.3 1.8 26.5-1.2 2.8-1.1 3.5-.7 3 1.9-1.8 8.7-38.9 21.5-61.7 21.4l-21-.2-5 6.9c-2.7 3.8-8.8 9.8-13.4 13.4l-8.5 6.4 7.5 6.7c4 3.7 10.1 8 13.5 9.6 3.3 1.5 9.5 5.8 13.6 9.6l7.6 6.9-14.1 4.3c-7.7 2.4-20.2 4.8-27.6 5.4l-13.6 1 11-8.2c6.1-4.6 12.3-9.1 14-10 1.6-.9 2.3-2.3 1.6-3.1-1.5-1.5-27.6 16.9-27.6 19.5 0 2.2-6.3 2-9.9-.3-2.5-1.6-2.4-2.1 1-3.4 6.8-2.6 32.8-20.2 31.5-21.4-.6-.6-5.3 1.7-10.4 5.3-5 3.5-11.2 7.5-13.6 8.7-2.5 1.3-7.2 4-10.5 6-3.9 2.3-6.7 2.9-8 1.6-1.3-1.3 4.5-5.4 16.6-11.7 20.8-10.9 26.5-14.6 24.9-16.3-.7-.6-5.6 1.6-11.1 5-5.5 3.3-10.4 6.1-11 6.1-.6 0-6.7 3.2-13.5 7-16.5 9.3-18.1 8.8-7.2-2.2 5.1-5 9.2-11.1 9.3-13.5.1-3 2.5-5.5 8.3-8.3 20.8-10.3 27.6-34.8 13.7-49.1-8.7-9-19.7-15.9-25.3-15.9-8.1 0-7.6-20 1.1-42.7 2.7-7 10.9-6.3 33.4 3m-114.3-1c6.6 1.6 18.1 5.8 25.4 9.3l13.5 6.4-5 9.6c-5 9.9-10.9 33.7-10.9 44.3 0 5.9-.1 5.9-13.2-7C92 157.3 70 125.6 70 118.8c0-2.5-.9-5.1-2-5.8-1.1-.7-2-3.1-2-5.3 0-4.7 7.3-4.3 31 1.6m164 10.6c-11.8 4.8-15.2 18.6-7.3 29.7 9.1 12.8 28.1 9.4 34-6.1 6.2-16.3-9.9-30.5-26.7-23.6m-74 38.2c27 16.5 24.1 45.3-5.7 56.7-22.6 8.6-44.6-7.9-42.8-32.2 1.9-25.1 27-37.8 48.5-24.5m-14.5 13.2c-4.7 1.9-10.5 16.6-8.5 21.7 6.4 16.8 28.9 18.3 36 2.5 8-17.9-8.1-32-27.5-24.2m141.3 3.3c-1.5 3.4-6.6 6.1-20.3 10.7-10.1 3.4-18.7 7.3-19.2 8.8-.6 1.8.3 2.1 2.9 1 12-5 31.3-11.2 32.2-10.4 2.5 2.6-2.6 5.2-16.4 8.5-8.3 1.9-15 4.3-15 5.3s1.6 1.3 3.5.8c1.9-.6 6.7-1.6 10.5-2.3 3.9-.7 8.8-1.8 11-2.4 3.8-1.1 3.9-1 .5 2.8-1.9 2.1-3.5 4.6-3.5 5.5 0 5.1-32.5 35.3-35.2 32.6-.5-.5.5-7.6 2.3-15.7 1.7-8.2 3.7-18.5 4.3-22.9 1-7.6 1.7-8.5 11.8-12.8 5.8-2.5 15-6.7 20.2-9.2 12.2-5.8 13-5.9 10.4-.3m-88.3 1.1c-6.6 4-6.9 5.6-1.3 7.4 4.7 1.5 6.7 0 8.7-6.6 1.6-5.2.2-5.4-7.4-.8m40.6 30.6c-1.3 5.9-2.6 12.7-3 15-1.3 8.2-3.6 17.7-4.4 19.2-1 1.7-9.5-3.2-16.7-9.7-2.7-2.5-7.5-5.8-10.5-7.4l-5.6-2.9 10.8-8.3c10.1-7.7 29.5-18.5 30.9-17.2.4.3-.3 5.4-1.5 11.3m28.7 17.8c-1.1 8.1-.2 13.4 4.3 27.3l5.6 17.2-2.4 26.2c-1.4 14.4-4.7 37.4-7.5 51.2l-5 25 4.1 3.3c2.3 1.8 4.1 5.4 4 8 0 4.2-.3 4.3-2.1 1.2-2.8-4.9-6.5-4.6-3.9.4 2.9 5.3 2.8 5.5-3.9 7.8-5.3 1.8-6 1.6-6-1.6 0-5.1-2-10.1-4.1-10.1-.9 0-1.1 3.2-.5 7 1.1 7 1.1 7-5.6 6.3-5.6-.6-6.9-1.6-7.4-6-.8-6.5-4.3-7.1-4.5-.8-.2 4.3-.3 4.3-1.9.5-.9-2.2-1.8-21.6-1.9-43.1-.1-38.3-2.1-50.6-7.3-45.4-.8.9-.5 2.6.8 3.9 1.7 1.7 2.4 13 2.4 37v34.5l-5-2.3c-3.8-1.7-6.3-1.7-10.1.1-2.8 1.3-5.3 2.3-5.5 2.3-3.4 0-.2-58.2 3.7-69 1.3-3.7 1.2-3.7-1.9-.9-5.1 4.9-7.9 27.8-6.6 55.6 1.1 23.2-1.7 44.4-4.1 30.8-1.1-6.1-4.5-5.7-4.5.5 0 2.8-.7 5-1.5 5s-3.7.6-6.3 1.3c-4.3 1.2-4.7.8-3.8-4 .7-3.6.2-5.3-1.7-5.3-1.6 0-2.7 2.1-2.7 5.2 0 3.9-.8 4.9-3.2 4-1.7-.7-4-1.2-5.1-1.2-1.2 0-1.5-2.7-.7-6.5l1.2-6.5-4 5c-5.9 7.2-5.7-.1.1-8l4.4-5.9-6.3-32.6c-3.4-17.9-6.8-36.5-7.4-41.5-.7-4.9-1.7-10.4-2.2-12.2-.5-1.7 1-5.2 3.2-7.8 2.7-3.1 4-7.5 4-13.3 0-4.8.7-8.7 1.5-8.8.8-.1 7.9-.4 15.8-.8 7.8-.4 19.5-2.2 26-4.1 6.4-1.9 12.6-3.6 13.7-3.8 1.1-.2 2.9-.8 4-1.5 1.1-.6 4.6-1.8 7.8-2.5 8.8-2.1 25.8-13.8 33.4-23 8.5-10.1 8.2-10.2 6.6 1.9m16.3 68.1c2.7 5.3 2.8 7.7.8 16.2-2.5 10.3-2.9 24.6-.9 33.5 1 4.7.6 5.1-6 5.1-5.4 0-6.8-.7-5.9-3 1.9-5 6.9-40.5 6.9-49.5 0-10.1.9-10.5 5.1-2.3m5.1 61.2c1 1 2.2 4.8 2.8 8.7.9 5.7.8 6.1-.9 2.4-2.7-6.1-4.8-5.7-3.6.6.9 4.7-2.6 10.9-6.1 10.9-.8 0-1.4-3.3-1.4-7.3 0-4.1-1-7.7-2.3-8.1-1.6-.6-2 1.6-1.3 7.3 1.2 8.6-.1 9.7-6.1 5.2-3.4-2.6-3.5-3.8-1.3-13.2l2.5-10.4 8 1.1c4.4.6 8.8 1.9 9.7 2.8m-127.4 10.8c1.4 10.6.1 15.8-4.1 15.8-2.2 0-2.6-1.6-1.6-7 .9-4.6.6-7-.9-7-2 0-3 4.4-2.7 11.6.2 5.2-6.5 1.3-7.1-4.1-.7-6.2-3.6-7.3-5-2-.5 1.9-1 .6-1.2-2.9-.5-15.5 20.6-19.6 22.6-4.4" />
</symbol>
<symbol id="icon-cat4" viewBox="0 0 400 400">
<path d="M215.6 47.5c-6.4 17.1-10.1 29.9-14.4 48.8-2 8.8-13.1 11.7-52.1 13.6-38.3 1.8-45.1 3.5-45.1 10.9 0 13.9 16.7 53.9 26.5 63.7 5.1 5.1 5.7 4.9-19.2 6.5l-21.7 1.5L77 179.3C58.9 160.5 48.1 137.5 38.9 99c-9.7-40.9-15-44.9-19.3-14.6-6.5 46.4 6.1 89.7 36.1 123.7l7.8 8.9-7.7 8.7c-4.2 4.8-10.7 15.2-14.5 23.1-3.8 8-13 23.4-20.5 34.3-22.4 32.8-27.3 55-14.6 65.7 10.3 8.7 17.1 6.5 24.5-8 4.6-9.1 19.5-17.8 53.9-31.3 46.4-18.3 44.5-18.6 60.5 10.5 17.2 31.3 33.2 40.9 47.4 28.5 4.9-4.3 4.4-9-1.5-14.5-4.8-4.5-7.5-20-3.5-20 .8 0 6.3 8.7 12.2 19.3 18.9 33.7 31.6 43.3 47.6 35.5 9.3-4.6 10.1-8 5.6-22.3-5.1-16.2-1.8-43.1 8.1-65.5 7.6-17.2 10.1-18.4 43.1-22.1 72.8-7.9 93.9-18.6 93.9-47.5 0-15.5-8.1-19-23.2-10.2-7.8 4.6-10.6 5.1-22.6 4.5-18.9-1.1-20.6-2.8-16.8-17.3 3.7-14 1.7-12.5 18.7-14.4 21.5-2.4 23.4-6.5 2.1-4.8-20.7 1.8-22-2.3-2.3-7.6 6.9-1.9 13.2-4 13.8-4.8 1.4-1.5-15.9.3-23.2 2.4-9.2 2.6-4.3-3.5 6.9-8.7 12.6-5.7 11.3-8.8-1.5-3.7-8.9 3.6-12.7 4.1-11.1 1.5 3.3-5.3-30.5-44.4-46.4-53.7-5-3-10.1-8.1-12.3-12.5C271.6 65.6 233.4 28 225 28c-1.2 0-5.5 8.8-9.4 19.5M254.1 58c13.2 12.9 23.7 27 21.5 28.9-.3.4-9.7.2-20.9-.4l-20.3-1-3.3-12.8c-1.7-7.1-3.7-18.3-4.5-25.1l-1.2-12.2 6.6 3.8c3.6 2.1 13.6 10.6 22.1 18.8M290 96.2c23.1 13.9 27.8 33.6 10.6 44.9-17.7 11.6-35.2 4.9-40.7-15.6-6.7-24.6 10.3-41.2 30.1-29.3m-38.8 5c3.7 1 4.4 3.1 5.4 15 2.3 27.2 17.7 39.6 38.3 31 23.6-9.9 54.5-2.3 34.7 8.5-22.8 12.4-22.4 19 .9 13.2 9.4-2.3 6.1 2.3-5 7.1-5.8 2.4-9.3 4.9-7.9 5.4 1.4.6 5.3-.1 8.6-1.5 8.2-3.4 8.6-2.2 3.8 12.2-4.7 13.8-12 25.5-22.4 35.4l-6.7 6.4 1.7-20.4c1.7-20.1-.6-52.3-4.1-55.8-.8-.8-5.5-.2-10.5 1.3-4.9 1.5-12.4 3.3-16.5 4-6.1 1-8.6 2.8-12.8 9.6-2.8 4.6-9.6 13-15 18.6l-9.9 10.1 20 19.2c10.9 10.5 21.8 19.7 24.1 20.5 10.3 3.2-6.2 11.3-32.9 15.9-34.9 6.1-35.7 5.3-15.9-16.5 6.3-6.9 10.9-13 10.4-13.6-.6-.6-7.2 5.8-14.7 14.1-12.3 13.5-20.8 18.9-20.8 13 0-3.3 20.2-23.9 26.7-27.2 3.1-1.7 5.2-3.4 4.7-4-1.9-1.9-12.4 5-24.7 16.1-11.7 10.7-16.7 13.4-16.7 9.4 0-2.8 15.5-15.6 28.6-23.6 6.4-3.8 11.2-7.5 10.6-8.1-1.3-1.3-17.1 7.9-30.6 17.8-11.1 8.2-15.5 9.2-21.1 4.9-3.2-2.4-2.7-2.9 5.1-4.9 11.2-2.8 26.7-16.4 31.5-27.5 2-4.7 5.6-9.5 7.9-10.8 13.2-7.1 19.3-28.2 10.8-37.4-4.5-4.9-4.7-5-2-.7 11.3 17.7-8.7 44.1-33.3 44.1-15.9 0-33.5-15.4-33.5-29.4 0-27.1 30.1-41.8 54.7-26.6 5.5 3.5 8.8 4.8 7.3 3s-6.4-5.4-11-8.1l-8.4-4.9-1.3-16.4c-.9-12-.6-16.8 1.2-18 2.9-1.8 34.4-2.1 40.7-.4m17.7 4.1c-11.3 12.2-.4 35.5 14.8 31.7 12.8-3.2 17.7-14.7 11.3-27-5.8-11.2-18-13.4-26.1-4.7m-129.5 16.9c10.6 2.3 21.4 5 23.9 5.9l4.6 1.7-5 10.8c-4.5 9.8-6.7 27.2-6.9 52.9-.1 18.4-29.2-19.9-43-56.6-8.1-21.7-7.5-22 26.4-14.7m52.6 27.3c-26.6 13.3-8.5 54.4 18.4 41.7 17.7-8.5 18-33.8.4-42.2-8.1-3.8-10.2-3.8-18.8.5m64.4 3.6c-5.7 4.1-5.6 6.9.4 6.9 5.3 0 10.2-4.7 8.3-7.9-1.8-2.8-3.4-2.6-8.7 1m79.6 6.7c0 1-1.1 2.2-2.5 2.8l-10 4.2c-10.3 4.4-9.5 1 1-4.3 9.6-4.8 11.5-5.3 11.5-2.7m-36.9 21.6c2.9 26.8-2.9 58.6-10.6 58.6-4.5 0-34.2-22-39.1-29-2.3-3.3-5.1-6.6-6.2-7.4-2.7-1.8-3.7-1.1 22.1-15.5 12.3-6.8 23.9-14.1 25.8-16.3 5.5-6 6.5-4.7 8 9.6m91.8 20.4c.6 1-.9 1.4-3.4.9-4.2-.9-4.2-.8-1 1.9 7.2 5.9 3.6 9.7-4.1 4.3-5.4-3.9-5.8-.8-.5 4 2.7 2.4 5.6 3.2 9 2.3 6.6-1.7 6.4 0-.9 6.8-3.3 3.1-6 7.5-6 9.9 0 9.1-39.8 20.3-83 23.4-26.8 1.8-34 5.7-42.3 22.4-12 24.1-15.9 68.3-6.9 79 1.4 1.7 2 4.1 1.3 5.2-2.3 3.6-6.6 2.3-8.1-2.4-1.4-4.3-1.5-4.2-2.7 1.5-1.7 7.8-7.6 9-10.2 2.1-1.1-2.8-2.9-5.1-4-5.1s-1.5 1.4-.8 3c4.9 12.9-12.6-8.6-24-29.4-10-18.1-25.6-34.9-35-37.5-13.7-3.9-48.8-2.6-59.6 2.1-5.3 2.3-17.3 6.9-26.7 10.2-32.3 11.5-53 24.3-58.8 36.4-1.8 3.9-4.7 7.2-6.4 7.2-2.3 0-2.5-.8-.9-3.9 2.6-4.7 2.7-8.1.3-8.1-1 0-2.3 2.3-3 5-2.1 8.3-5.8 6.1-4.2-2.5l1.4-7.4-4.2 3.7c-11.6 10.5-1.9-20.2 14.9-47.4 13.7-22.3 14-22.4 15.4-10.2 3.2 28 23.5 27.1 64.5-2.7 5.1-3.7 9.8-4.6 31-5.7l25-1.3 9.5 6c27.5 17.4 49 17.1 55.5-.9 4.1-11.2 4.3-11.4 18.6-11.8 23.3-.7 50.6-15.4 74.6-40 16-16.4 16.4-16.6 23-14.7 13.1 3.7 30.5 2.4 38-2.9 7.2-5.1 12.8-6.4 14.7-3.4m-222.7 96.5c12.3 4.1 15.7 8.8 14.4 19.8-.9 7.7-.3 11 3.3 16.8 5.7 9.2 4.1 15.9-2 8.8l-4.1-4.7 1.2 4.5c3.5 12.5-14.2 5-23.8-10.1-6.5-10.1-19.2-34.2-19.2-36.3 0-2 23.4-1.1 30.2 1.2" />
</symbol>
<symbol id="icon-hero1" viewBox="0 0 400 400">
<path d="M129.2 3.2C127 9 128 17.1 131.8 24.6l3.8 7.4-4.6-1.2c-8.1-2-19.7 2.8-29.6 12.4-9.7 9.4-11.1 12.9-3.7 9 5.2-2.8 10.6-2.8 17.7 0 8.1 3.2 1.6 5.5-16.3 5.7C83 58 70.4 53 63.5 43.8c-5.6-7.6-7.7-7.3-6.2.7 1.8 10.2 8.5 23 14.7 28.2l5.7 4.8-13.3 2.2c-23.5 3.9-47.6 19.2-51 32.6-1.2 4.4 1.1 4.9 4.5.8 1.3-1.5 6.6-4.2 11.7-5.9 8.6-2.8 9-2.8 4.9.1-6.2 4.4-5.6 6.8 1.3 5.4 5.1-1 6.3-.3 9 4.9 1.7 3.3 5.6 8.1 8.7 10.5l5.5 4.5-7.5-1.2c-8.8-1.4-9.5.7-2.2 6.5 2.9 2.2 4.2 4.1 3 4.1-4.4 0-2.3 3.9 2.7 5.2l5.1 1.2-4.6 8.3c-7 12.9-27 19.6-43 14.5-7-2.3-5.3 1.2 3.9 7.8 12.8 9.3 20.1 12.8 26.3 12.9l5.7.1-5.5 6.5c-5.8 6.9-10.9 17.3-10.9 22.4 0 4.5 4.6 3.8 7.7-1.1 2.3-3.8 3.8-4.1 12-2.9 5.1.8 12 1.7 15.3 2 10.9 1 4.1 19-9.4 25.1l-8.2 3.6L56 251c4.2 2.2 9.8 3.1 16.2 2.7l9.8-.7-.5 10.8c-.5 11.2 3 16.4 5.2 7.6.7-2.6 3.7-5.8 6.8-7.1 4.8-2.1 5-2 2 .4-7.4 5.8 2.9 7.7 13.1 2.4 8-4.2 14.2-.8 18.3 10 1.8 4.7 4.6 9.6 6.1 10.9 2.4 2 2.4 3.3 0 8.7-1.5 3.4-3.2 7.8-3.7 9.7-1.5 4.6-19.5 18.5-41.2 31.6-27.2 16.5-33.5 21.2-40 30.2-4.8 6.6-12.1 25.1-12.1 30.6 0 .7 11.5 1.2 25.5 1.2H87l-.3-23.5c-.5-33.4-.7-33.1 16.3-44.5 8-5.4 15.9-11.2 17.6-12.9 3.6-3.6 6.3-4.1 4.2-.8-3.1 5-4.3 47.3-2.3 74.7l.5 6 83.4.5 83.4.5 1.2-6.5c.7-3.7 1.6-10.7 2-15.6 2.7-33.1 3.7-47.8 3.8-54.4.1-8.9.4-9 9.3-2.4 3.8 2.8 11.5 7.8 17.1 11l10.3 5.9-.6 11.5c-.6 13.6-3 41.7-4 46.9-.6 3.3 1.4 3.6 29.4 3.6h30l-1.4-4.5c-8.1-26.3-18.8-40.6-38.7-51.9-10.4-5.9-60.2-37.1-62-38.7-.4-.4.4-3.6 1.8-6.9 1.8-4.4 2-6.8.4-8.4-3.7-3.7 5-18.2 14.9-24.4 9.3-5.9 18.7-4 18.7 3.8 0 1.7 1.1 3 2.6 3 1.7 0 2.3-2.4 1.7-8-.6-7-.2-8 3.4-8 4.1 0 18.3-10.9 18.3-14.1 0-.9-3.1-1.2-6.8-.5-5.5.9-7.2.3-9.1-3.2-2.7-5.1.8-5.8 3.8-.7 3 5.2 6.5-.7 5.3-9-1-7.2-.7-7.4 4.9-4.4 2.3 1.2 3.9 4.1 3.9 7 0 5.5 2.9 6.6 4.8 1.7 2.1-5.6 1.2-13.6-2.6-22l-3.7-8.2 6.8-5.4c3.7-3 8.9-9.8 11.7-15.1 2.7-5.4 5.9-10.1 7.2-10.5 3.2-1.1-4.6-15.8-10.1-19.1-4.1-2.5-4-2.7 2.7-8.6 6.3-5.5 11.3-14.8 15.3-28.4 1.7-5.7-1.3-8-3.4-2.5-3.7 9.8-23.1 13.8-33 6.8l-6-4.3 7.3-6c6.9-5.7 20.9-30.3 18.5-32.6-.5-.6-3.7 1.6-6.9 4.8-6 6-17.2 10.3-27.1 10.3H326l8-7.2c8.2-7.5 12.6-18 10.9-26.2-.5-2.5-1.4-6.8-1.9-9.6-1.3-5.9-4.1-6.5-5.5-1.2-1.8 6.6-9.5 9.4-9.5 3.4 0-5.6 8.9-17.2 13.2-17.2 1.5 0 2.8-.9 2.8-2 0-3-19.4-2.4-25.6.8l-5.4 2.8.7-9.5c.6-9.2.3-9.8-9-17.8-11.3-9.6-13.3-10.2-10.6-3.2 4 10.7-4.6 18.5-14.9 13.6-8.6-4.1-8.9-6.5-2-12.5 7.1-6.2 6-6.4-11.2-2.4-15.4 3.6-22.4 6.5-28.4 11.7-3.8 3.3-7.6-2.7-7.6-11.8 0-7.4-4.9-2.6-8.1 8.1-2.9 9.7-3.3 10.1-5.3 5.8-6.2-13.7-23.4-25.2-18.5-12.5 3.7 10 2.6 17.6-2 13-7.7-7.7-25.5-14.9-41.6-16.7-9.6-1.1-10.9.6-3.6 4.6 9.8 5.2 20.5 28 13.3 28-4 0-24.2-20.6-26.5-27.1-2.7-7.3-6.5-9-8.5-3.7m92 165.1c-1.7 3.7-6 10.1-9.5 14.2s-5.9 7.9-5.4 8.5c1.3 1.3 29.6-12.4 34.4-16.6 3.9-3.6 3.3 3.7-1.1 12.3-2.6 5.1-.4 6.6 4 2.7 5.6-5.1 18-9.7 19.5-7.3 2.2 3.6-.6 7.3-6.4 8.8-9.7 2.3-32.4 13.4-33.5 16.3-1.4 3.6-.4 3.5 7-.3l6-3.1-3.3 5.1c-3.8 5.8-2.3 9.7 1.6 4.6 7.4-9.4 28.6-15.7 27.1-8-.5 2.7-2.3 3.4-8 2.9s-7.8.2-9.5 3.3c-5.5 10.3 1 22 10.8 19.5 4.9-1.2 7.2-5.2 3.1-5.2-6.4 0-.6-12.9 8.4-18.8 10.8-7 13.5 4.2 3.5 14.9-7.1 7.6-6.8 8.5 1.9 6 5.7-1.7 6.2-1.5 4.1 1-3.5 4.2-1.7 5.1 5.7 3 7.2-2.1 7.5-1.3 4.4 10.1-3.2 11.4-32.6 18.1-47.1 10.6-2.7-1.4-4.9-1.7-4.9-.8 0 4 8.5 6 24.8 6 20.7 0 28.5-5 32.7-20.8 1.4-5.1 3.4-9.2 4.4-9.2 1.1 0 1.4 1.5.7 3.3-1 2.5-.5 3.1 1.9 2.2 3.3-1.3 2.1 4.1-7.9 34.5-8.9 27.1-56 60.1-81.6 57.3-10.9-1.3-42.4-15.9-61.1-28.5-14.8-9.9-19.5-19.7-25.9-53.8-2-11-4.5-22.2-5.5-24.8-1.6-4.1-.6-5.9 7.2-13 5.2-4.8 11-12.8 13.8-19.2 6.1-13.9 9.3-17.4 17.2-19.1 3.5-.8 8.7-2.6 11.6-4.1l5.2-2.7-1.8 8.2c-2.3 10.1-.6 12.2 4.4 5.7l3.8-5-.6 10.5c-.7 11.4 2.4 14.2 6.3 5.6 2.2-4.8 10.4-11.4 29.4-23.7 11.4-7.3 13.7-5.3 8.2 6.9m148.4-1.9c4.9 4.9-1.8 8.6-11.1 6.3-4.5-1.1-4.5-1.4-1.3-4.9 3.9-4.3 8.9-4.9 12.4-1.4m-227.2 19.8c.4 1.3 5 3.7 10.2 5.4l9.4 3-10 3.4c-36.9 12.5-28.2 62 10.9 62 8.3 0 27.1-5.6 27.1-8.1 0-1-3.5-.5-7.7 1.2-21.3 8.5-45.8.7-46.6-14.9-1.2-26.3 9.1-36.2 35.8-34.5 2.5.2 8.1 3.6 12.5 7.6 9.1 8.1 11.2 8.2 7 .1-2.5-5-.8-8 2-3.4.7 1.1 2.6 2 4.2 2 8.5 0-8.6-10.1-31.6-18.7-17.7-6.6-24.2-8-23.2-5.1m24.1 23.1c-6.3 2.5-9.1 12.9-5.1 18.3 7.3 9.7 22.5 4.6 16.2-5.5-2.2-3.5-2.1-4.5.3-6 6.2-3.9-3.8-9.8-11.4-6.8m157.9 10.6c2.1 14.1-22.7 52.5-29.5 45.7-2-2 2-9.4 6.1-11.2 6.1-2.8 15.7-23.5 13-28.1-1.6-2.8-1.9-2.6-1.9 1.3-.1 3.9-9.1 24.4-10.8 24.4-4.9 0 4-21.5 12.6-30.3 8.8-9 9.4-9.1 10.5-1.8m-207 9.6c.1 1.9.5 7.7.9 12.9 1 11.2-2.6 9.8-8.5-3.4-3.6-7.9-3.6-8 .8-10.4 5.9-3.3 6.5-3.2 6.8.9m-12.7 5c1.7 6.5 11.8 21.5 14.5 21.5 2.4 0 5.6 5.9 4 7.4-1.6 1.7-11-5.7-17.7-14.1-9-11.1-9.7-12.4-8.3-16.1 1.8-4.7 6.2-3.9 7.5 1.3M206 268c0 2.2.9 4 2 4s2-1.8 2-4-.9-4-2-4-2 1.8-2 4m32.6 22.2c-3.2 3.2-35.7 4.6-46.5 2.1-9.7-2.2-12.2-1.6-8.4 2.2 6.6 6.6 57.5 3.2 59.8-4 1-3.1-1.9-3.3-4.9-.3m21.3 20.7c-4.2 4.2-35.9 22.1-44.7 25.3-12.6 4.6-14.2 9.8-7.6 24.6 9.7 21.4 3.8 27.6-12 12.7-10-9.5-11.3-11.7-13.6-23.5-1.5-7.1-4.2-15.2-6-18-1.9-2.7-5.8-8.8-8.7-13.5l-5.3-8.4 18.2 9.1c29.3 14.7 42.6 13.9 70.8-4.4 11.2-7.3 13.2-8.2 8.9-3.9" />
</symbol>
<symbol id="icon-hero2" viewBox="0 0 400 400">
<path d="M164 7.3c-6.7 2.7-15.7 4.9-20 4.8-12.1-.1-26.1 7.2-41.3 21.7C64.2 70.7 54.8 97 56.9 162.5l1.1 34.4-7.4 23.9C41.2 251 38.3 302.1 44.7 324c6.8 23.5 5.6 41.6-3.4 49.5-6.6 5.7-17.6 23.9-15.6 25.8.3.3 3.3-4.2 6.7-10.1 3.7-6.4 7.8-10.9 10.3-11.3 2.2-.3 4.4-1.6 4.8-2.8 1.5-4.4 6.2-2 8.9 4.5 1.5 3.6 5.5 9.7 8.8 13.5l6.1 6.9h35.2c19.3 0 35.2-.8 35.2-1.8 0-3.6-6-16-10.5-21.7-2.5-3.3-4.2-6.3-3.7-6.8 2-2 18.3 20.7 18.3 25.4 0 3.5 1.2 4.9 4.2 4.9 8.6 0-1.5-20.4-19.1-38.7l-12.3-12.8 12.1-4.8c6.6-2.6 13.6-6.2 15.7-7.9 2-1.7 3.6-2.2 3.6-1 0 4.9 18.7 20.2 29.2 23.8 3.4 1.2 6.2 3.3 6.2 4.7 0 1.4 1.9 2.6 4.2 2.8 2.4.2 4.2-1 4.2-2.7 0-1.6 1.1-3.1 2.6-3.2 14.3-.9 27.5-7.6 41.8-21.3l9-8.7 7.1 3.7c4 2 8.1 3.9 9.2 4.3 3.5 1.2-8.8 16.9-22.4 28.6-14.6 12.5-30.7 29.2-30.7 31.6 0 3.4 9.4 1.4 14.2-3.1l5.1-4.7-2.4 4.7-2.4 4.7h104.2l6.3-13.8c5.9-13.2 8.9-16.9 17.1-21.7 6.4-3.7 28.8 21.7 28.8 32.6 0 1.6.9 2.9 2.2 2.9 1.2 0 1.8-.7 1.3-1.6-.4-.8-2.9-6.2-5.5-11.9-2.6-5.8-9.3-14.8-14.8-20-6.9-6.6-9.5-10.3-8-11.7 3.4-3.4 3.9-45.7.8-62.1-1.5-8-3.4-21.1-4.2-29.2-2.2-23.3-6.8-40-17.9-65-12.9-29.4-13.3-31.4-10.3-56.2 6.8-55.5-35.1-122.2-85.1-135.7-20.7-5.6-61.4-5.2-75.8.7m65.6 60.2c2.2 4.1 2.1 4.2-1.7 1.3-4.7-3.8-7-6.7-7-9.2-.1-2.6 6 2.9 8.7 7.9m-15-2.8c0-2.2.6-2.2 3.1-.1 2.5 2 2.6 3.3.8 5.5-2.1 2.5-3.2 2.2-7.4-1.6-4.7-4.5-7.2-2.9-2.6 1.7 3.3 3.3-1.7 5.8-5.4 2.7-2.6-2.1-2.6-2.9.1-5.5 1.7-1.7 3.1-4.1 3.1-5.4 0-1.2 1.8-.5 4.1 1.5 2.8 2.6 4.2 2.9 4.2 1.2m-27.1 8.2c1-1.6 3.1-.2 6.4 4.5 4.1 6 4.2 6.5.6 3.3-5.6-4.9-10.7-5-6.7-.2 2.6 3.2 2.4 3.3-1.8 1-2.6-1.3-5.7-4.4-6.9-6.7-2.2-4-2-4.1 2.3-1.8 3.5 1.9 4.9 1.9 6.1-.1m-29.2 10.4c2.5 3.5 4 6.3 3.4 6.3-.5 0-3-2.8-5.4-6.3-2.5-3.4-4-6.2-3.5-6.2.6 0 3.1 2.8 5.5 6.2M125 96.5c0 26.4 67.6 77.2 81.2 60.9 2.8-3.4-.4-11.4-4.7-11.8-1.4-.1-.2-.8 2.7-1.7 4.3-1.2 6-.3 9.9 5.3 5.8 8.5 5.8 9.1-.4 9.1-5.8 0-10.3 3.9-14.9 12.9-4.4 8.4-2.1 9.9 4.9 3.2l5.7-5.4.1 10.1c.2 13.6 5.1 20.9 14 20.9 12.9 0 23.9-13.2 21.5-25.8-1.1-6-1-6.2 1.9-2.5 1.9 2.5 2.5 6 1.7 9.4-1.3 5.3-1.2 5.3 3 1.5 11-9.7 11.9 30.7 1.1 52.3-11.4 22.8-50 52.6-68.2 52.6-14.9 0-44.1-14.6-64.6-32.3-2.7-2.3-7.5-11.2-10.6-19.8-3.1-8.6-7.9-20.4-10.6-26.2-6.4-13.7-6.3-17.2.2-9.8l5.1 5.8-.9-9.3c-.7-8.5 1.4-14.6 5.1-14.6.9 0 1.5 1.3 1.5 3s-.9 2.4-2.1 1.7c-1.2-.8-1.5.2-.7 2.4.8 2 1.4 4.8 1.4 6.3 0 3.3 10.1 13.6 15.7 15.8 3.6 1.5 3.5 1.8-1.5 1.9-3.1 0-6.2-.8-6.9-2-1.9-3.2-5.2-2.5-3.9.9 2.6 6.8 20.3 3.6 27.3-5 3.1-3.8 3.5-18 .6-19.8-1.2-.7-2.1-2.3-2.1-3.5 0-1.4 1.2-1.3 3.2.4 1.7 1.4 3.7 2.1 4.3 1.5 2-2-7.4-9.2-15.5-11.9-4.4-1.4-8-3.7-8-5 0-1.3-.6-4.4-1.4-6.8-1.3-4-.7-4.3 5.9-3.8 9 .7 11.6-2.4 3.5-4.2-7.4-1.6-11.2-16.2-8.8-33.7.8-5.9 1.2-14.6 1-19.3-.3-4.7.4-8.5 1.4-8.5 1.1 0 1.9 2.1 1.9 4.8m67.4 30.6c5.7 7.3 8.5 12.5 6.8 12.5-1.6 0-6.2-5.6-10.3-12.5-4.1-6.9-7.2-12.5-6.9-12.5.4 0 5 5.6 10.4 12.5m35.7.6c1.8 4.2 2.4 7.7 1.3 7.7-1 0-2.4-2.2-3.1-5-.7-2.8-1.9-6.7-2.7-8.9-2.4-6.7 1.1-1.8 4.5 6.2m10.8 18.6c.7 3.2 2 5.8 3 5.8s1.9 1.9 1.9 4.2c0 3.5-1 4-5.8 2.9-10.5-2.3-10.9-2.7-10.9-11.2 0-10.7 9.8-12.1 11.8-1.7m-128.6 16.4c10.1 10.1 10 9.7 2.2 9.4-5.4-.2-6.6-1.4-9.2-9.1-3.7-10.9-3.4-10.9 7-.3m207.2 14.6c-4.6 5.1-8.4 5-11.2-.2-1.3-2.3-1.5-4.2-.5-4.2s4.6-2.7 7.9-6.1l6.1-6.1.7 6.3c.4 3.8-.8 7.9-3 10.3m-95.8-5.1c1.2 3.2-1.7 6.9-5.4 6.9-2.5.1-4.2-4.2-3-7.3 1.6-4.1 6.8-3.9 8.4.4m81.5 5.7c7.8 11.9 5.9 26.8-5.1 40-3 3.6-6.5 8.2-7.8 10.4-3.8 6.4-4.5 3.3-6-24.3-1.3-25.9-1.3-26.1 3.5-28.5 7.7-3.6 11.8-3 15.4 2.4m-14.7 6.5c-4.1 3.3-4.1 3.3.4 2.1 10.8-3 13.6 13 4.1 23.7-4.5 5.1-1.2 4.2 5.4-1.5 9.1-7.7-.7-31.7-9.9-24.3M81.4 194.8c4.2 1.4 5.1 4.6 2.4 8.5-2.1 3.2-18.5-4.3-21.4-9.8-4.4-8.2-.8-10.7 7.5-5 4.1 2.8 9.3 5.6 11.5 6.3m38-8.6c.6 1.6.1 3.9-1.2 5.2-3 3-8-1-6.4-5.1 1.5-3.8 6.2-3.8 7.6-.1m116 5.3c0 3.2-9.3 5.9-14.2 4.1-5.5-2.1-4-6.9 1.7-5.4 2.1.5 5 .2 6.5-.7 2.8-1.8 6-.8 6 2m6.3 3.8c0 1.2-2.8 3.2-6.3 4.4-6.8 2.4-8.7 6.8-2.2 5.1 4.9-1.3 11.7-8.5 9.8-10.4-.7-.7-1.3-.3-1.3.9m-104.6 7.2c.8 4.2-5.5 6.6-9.3 3.5-2.4-2-2.3-2.8.8-5.2 4.4-3.3 7.6-2.7 8.5 1.7m25.4 23.4c0 6.5 6.9 13.5 9.4 9.5.7-1.1.4-2.1-.7-2.1s-2.5-1.8-3.1-4.1c-.9-3.5-5.6-6.2-5.6-3.3m91.6 19.4c-.1 2.2-5.4 23.1-7.9 31.2-3.5 11.2-9.5 18.2-7.9 9.2.7-3.9 1.3-11.5 1.3-16.9 0-7.6 1.2-11.1 5.2-15.5 2.9-3.1 5.2-6.5 5.2-7.6 0-1.1.9-1.9 2.1-1.9 1.1 0 2 .7 2 1.5m-62.4 8.9c-1.8 1.1-8.5 2-15.1 2s-12 1-12 2.1c0 1.2 4.6 2.1 10.3 2.1 10.4 0 20.9-3.3 20.9-6.6 0-2.2-.3-2.1-4.1.4m-62.5 13.4c6.3 3.9 15.4 9.2 20.3 11.8l8.8 4.7v15.8c0 11-1 17.3-3.2 20.5-1.8 2.5-2.5 4.6-1.6 4.6 2.2 0-6.1 5.7-8.5 5.8-1 .1-2.4.9-3.1 1.8-1.6 2.2-23.9 13.2-26.6 13.2-4.5 0-18.9-18.7-20.4-26.6-.8-4.2-.7-4.2 9.9.5 13.1 5.7 34.2 7.1 36.1 2.3.7-1.8-3.5-9.4-10.1-18.3-6.7-9.1-12.3-19.3-13.9-25.6-1.5-5.7-3.3-12-3.8-14-1.6-5.6 3.3-4.5 16.1 3.5m105.7 11.9c-1 18.9-5.4 23.5-20.9 22.1-9.5-1-9.8-.8-6.5 2.8 4.7 5.2 16.5 8.8 23.3 7.1 4.2-1 5.1-.8 3.4 1-1.3 1.2-7.6 2.5-14 2.7-16.8.6-10.3 7.5 8.7 9.2 14.9 1.4 15 1.4 5.4 12.6-17.2 20.1-43.6 26.1-61.4 13.9-6.3-4.3-11.8-8.6-12.1-9.6-.4-1-2.1-3.1-3.7-4.7-2.5-2.5-2.3-4.4 1.4-13 3.3-7.7 4.1-13.4 3.6-24.1-.3-7.8-.6-14.1-.6-14.1s4.7 1.8 10.5 4c14 5.3 32 .5 47.8-12.8 8-6.7 14.6-11.9 15.2-11.9.4-.1.3 6.6-.1 14.8m42.4 22.1c-1.1 2.2-1.5 6-.9 8.5 1.5 5.8-5 23.2-8.6 23.2-1.5 0-5.7-1.2-9.3-2.7l-6.5-2.8 10.4-11.8c5.7-6.6 11.6-15.9 13-20.7 2.5-7.9 2.8-8.3 3.4-3.2.3 3.1-.3 7.4-1.5 9.5m-110.6 90.8c4 3.9 7.6 6.1 8 5 .9-2.2-9.8-11.8-13.2-11.9-1.2 0 1.2 3.1 5.2 6.9"/>
</symbol>
<symbol id="icon-hero3" viewBox="0 0 400 400"><metadata>from PNG by InfiniteShift</metadata>
<path d="M183 2.2C112.8 18.4 75 76 83.9 153c7.7 65.9 7.1 69-21.1 117.4-19.9 34.2-33.2 62.1-40 83.5-2.9 9.4-6.9 20.7-8.8 25.1s-4.1 10.9-4.9 14.5L7.7 400h199.7l1.4-14.5c2.9-32.4 5.2-35.4 5.2-6.8V400h5c4.2 0 5.1-1 5.3-6.5.2-3.6.6-7.8.8-9.5.3-1.6.6-7.4.7-12.8.2-11.2 2.8-10.9 3.3.4.3 7 2 17.3 4.2 24.9 2 7.1 14.8 4.7 13.4-2.5-1.6-7.8.9-7.8 3.6 0l2.1 6h85.7l-3-5.9c-1.7-3.2-4.3-6.6-5.7-7.5-2.3-1.4-9.1-37-15.7-81.4-2.5-17.1-.6-16.1 2.5 1.2 1.4 8 3.8 16.9 5.2 19.6l2.6 5 .1-5c.1-2.7 2.2-26.6 4.6-53l4.5-48 5.9 8.4c7.3 10.4 7.6 10.5 10.9.7 1.4-4.4 3.3-7.5 4.1-7 3.6 2.2 7.5-1.8 8.6-8.7.6-4.1 2.5-14.8 4.2-23.9C385.2 95.5 348.8 27.1 265.7 4c-16-4.4-66.6-5.5-82.7-1.8m68.2 75.1c-3.8 7.5-7 13.1-7.1 12.4-.2-2.3 12.4-27.9 13.3-27 .5.5-2.3 7.1-6.2 14.6M182 67c0 .6-5 6.5-11.1 13.1-10.5 11.4-19 26.6-25.1 44.9-4 12.1-4.9 1.9-1-11.6C150.5 93.7 182 54.5 182 67m95.4 15.9c-.6 7.1-1.7 13.9-2.4 15.2-.8 1.2-2.3 8.6-3.4 16.5-3 22.5-3.1 23-4.5 25.3-1.8 2.9 1.2 2.5 5.3-.6 6.3-4.8 12.7-30.5 14.3-57.7.4-7.1 2.4-12.2 2.8-7.1.2 1.4.8 6.6 1.4 11.5 2 15.5 2.6 41.2 1.1 50.8-.7 5.1-.6 9.2.3 9.2 2.7 0 4.5-10.2 4.6-26.5.1-20.4 9.4-23.1 12.2-3.5.3 1.7 1.1 7.1 1.8 12 3.8 24.9 3 29.7-4.8 32.2-7.8 2.6-18.7 13.2-16.8 16.3.7 1.2 2 .6 3.1-1.2 2.4-4.3 12-4.5 10.3-.3-1.4 3.6-6.7 4-6.8.5-.1-5.1-4.6 5.6-5 12-.9 13.6 14.1 17.9 19.9 5.7 5.9-12.5 3-23.2-6.4-23.2-4.2-.1-4.7-.5-2.4-2 8.5-5.5 18.9 2.2 17.6 13.2-1 8.6.2 8.5 6-.3l4.5-7-5.3-7c-2.9-3.8-6.1-6.9-7-6.9-1 0-1.8-.9-1.8-2 0-4.3 4.2-1.6 9.8 6.1 6.8 9.3 6.7 13.1-1 38-2.7 8.6-5.2 22.8-5.8 32.9-1.5 25-1.1 24.5-46 51.1-27.8 16.5-42 14.6-79.7-10.8-10.1-6.8-13-8.1-10.8-4.8 1.6 2.5 4.8 5.4 7.2 6.5s4.3 2.6 4.3 3.4c0 1.8 36 19.6 39.6 19.6 2.1 0 2.1 1.1-.3 5.5-1.6 3-3.6 7.6-4.6 10.1-1.7 4.5-1.8 4.5-5.7.9-2.2-2-9-6.3-15.2-9.6-22.6-12-27.8-16.4-27.9-23.4-.1-3.6-.6-8.6-1.1-11.3-4.2-22.9-7.5-33.9-12.7-42.4-6.5-10.5-7-11.8-4.6-11.8 2.3 0 13 21.4 15.7 31.7 2.4 8.7 2.5 7.5 2.7-18.3 0-15.2.8-27.2 1.6-26.7s1.7-8.2 1.8-19.4c.6-30.3.3-29.3 4.8-20.8 4.8 9 8.5 10 5.2 1.3-7.3-19.5 30.1-25.9 39.7-6.8l4.5 8.8c2.2 3.7 2.6-3.4.7-10-5.7-18.9-22.9-24.4-44.1-14.1-11.1 5.4-14.1 4.6-7.5-2.1 1.5-1.4 8.3-11.6 15.3-22.6l14.8-23.5c5.6-8.7 3.7-2-3.9 14-12.3 25.9-12.5 27.8-2.8 26.8 8.1-.7 13.9-6.7 30.6-31.6 6.5-9.8 12.7-13.4 10.5-6.2l-1.9 6.5c-1.4 4.6-5.3 14.3-7.3 17.6-7.1 12.4 2.3 4.5 10.8-9 5.7-9.1 11.7-16.7 13.3-16.8 6.3-.4 6.9-1 3.5-3.6-3.4-2.5-3.3-3.3 1.7-12.9 6.9-13.2 7.5-13 6.2 2.6m22-3.4l3.7 13.7c.8 3 .2 4.7-2.2 5.6-4.6 1.7-4.5 2.2-5.3-14.3-.8-16.8.5-18.4 3.8-5m-40.9 2.1c-1.9 4.6-4.6 8.4-5.9 8.4-1.4 0-.3-3.7 2.8-9.1 6.2-11.1 7.9-10.6 3.1.7m-46 71.7c-8.7 3.5-11.5 19.2-5.3 28.9 8.8 14.1 24.6 6.2 24.7-12.3.1-14.5-7.8-21.3-19.4-16.6m9.5 2.5c0 2.8-5.6 6.7-7.8 5.3-3.1-1.9-.2-7.1 4-7.1 2.1 0 3.8.8 3.8 1.8m-86.5 13.3c1.9 6.3 1.8 6.7-1.5 4.9-3.7-2-12 7.6-12 13.7 0 4.7 4.3 2.1 6.3-3.8 2.3-6.4 5-6.9 8.5-1.3 1.7 2.7 1.2 4-2.6 6.7-5.3 3.7-5.1 17.7.4 21.6 1.6 1.2 3.2 5.4 3.7 9.4l.8 7.3-9-8c-16.1-14.1-16.6-15.8-12.2-36.6 5-23.3 12.8-29.5 17.6-13.9m66.5 22.5c0 1.1 1.4 2.5 3.2 3.2 5.1 1.9 18.8 1.4 18.8-.8 0-1.1-2.9-2-6.5-2s-8.5-.6-11-1.3c-2.5-.6-4.5-.3-4.5.9m-62.7 8.5c.4 10.3-4 9.7-4.9-.8-.4-5 .2-7.3 2-7.3 1.7 0 2.7 2.9 2.9 8.1m156.5 4.5c2.7 2.7 18.6 3 19.5.3.5-1.4-3.4-2.2-10.4-2.3-7.7-.1-10.6.5-9.1 2m-21.1 11.2c.7 3.9.1 6.7-1.8 8.3-3.7 3.1-3.7 5.9 0 5.9 4.4 0 7.5-7.4 6.1-14.1-1.7-7.8-5.9-7.8-4.3-.1m-51.2 34.3c-6.9 4.1-9.2 15.9-3.1 15.9 1.1 0 1.6-1.2 1-2.8-3.8-9.8 18.2-14.5 40.5-8.6 9 2.4 8.5 9.6-.9 11.9-3.8.8-3.8 1-.3 2.5 5.4 2.3 15.1-7.7 12.1-12.5-4.6-7.3-39.8-11.8-49.3-6.4m-52.3 56.4c-1.5 16.6 3.9 47.8 9.7 56.7l3.5 5.2 6.8-9.7c12.9-18.2 15.4-20.8 10-9.9-2.7 5.3-6.1 14.1-7.5 19.5-2.9 11.3-6.4 12.4-10.7 3.2a198.98 198.98 0 0 0-6-11.5c-1.5-2.7-3.4-9.7-4.1-15.5-.8-5.8-2.2-11-3.1-11.6-2.7-1.7-2.3-40.9.4-40.9 1.6 0 1.9 4.4 1 14.5M214 315c11.9 6 13.3 11 3.2 11-6.8 0-19.5 13.9-29.1 31.8-4.2 7.9-5.5 1.9-6.9-32.3L180 294l13.5 8.8c7.4 4.7 16.7 10.3 20.5 12.2m27.4 6.1l3.5 16.9 2.2 10.8c.6 3.2 1.5 6.6 2.1 7.5s.3 1.7-.6 1.7c-1.6 0-9.2-18.6-9.5-23 0-1.1-2.8-3.3-6.1-5-7.5-3.8-8.6-7.8-1.9-7.1 4 .4 4.5 0 2.7-2.2-1.7-2-1.7-3.4.1-5.6 1.4-1.6 1.8-4 1-5.3-.9-1.4-.4-2 1.3-1.4 1.5.5 3.8 6.2 5.2 12.7" />
</symbol>
<symbol id="icon-hero4" viewBox="0 0 400 400">
<path d="M227 2c-2.2.9-9.6 1.8-16.4 1.9-43.5.5-102.5 54.1-109.8 99.9-1.9 11.6-3.9 7.3-6.8-13.8-4.2-32-9.9-43.2-18.8-37.3-4.1 2.7-4.6 2.5-7.7-2.9C62 40.2 48 46.4 48 58.3c0 3.5-.3 3.6-4.6.7C35.1 53.6 24 72.6 24 92.2c0 10.2 3.9 8.5 4.2-1.8.2-11.6 6.2-27.2 10.7-28.1 6.4-1.2 8.4 4.1 7 18-.8 7-1.1 25.2-.7 40.5.4 15.2-.2 29.3-1.2 31.3-1.7 3.1-1.4 3.3 3.1 1.2 4.2-1.9 4.9-3.2 3.8-7.3-3.8-14.1-1.3-89.8 3.2-95.1 6-7.2 12.3-2.3 14.9 11.6.8 4.1 2.3 7 3.3 6.3.9-.6 1.3-1.9.6-2.9-1.8-3 3-9.9 6.9-9.9 3.7 0 3.7 0 10.4 34.6 1 5.3 1.8 12.2 1.8 15.4 0 3.1 1.1 6.9 2.5 8.4 1.4 1.4 2.7 4 2.9 5.6.2 1.7 2.2 11.6 4.4 22 2.3 10.5 4.2 21.4 4.2 24.4 0 2.9.9 5.9 2 6.6 1.1.7 2 2.3 1.9 3.6 0 1.3-3.1-1.2-6.9-5.6-6.4-7.4-7.1-7.8-10.2-4.7-6.9 6.9-4.2 24.5 4.6 29.4 2.6 1.4 3.3 4.5 3.1 13.1-.3 14.7 2.9 14.5 3.9-.3.7-8.7.1-12.1-2.3-14-9.8-7.8-11.4-10.4-10.5-16.6 1.2-8.6 4.8-9.2 12-2 3.7 3.7 8.2 6.1 11.3 6.1 2.9 0 8.1 1.4 11.4 3.2 6.7 3.4 6.6 2.4 1.8 24.8-1.1 5-2 14.2-2 20.6-.1 8-1.7 15.1-5.1 22.6-3 6.5-4.6 12.8-3.9 15.5 2.5 9.9-2.9 23-17.6 42.9-8 10.7-15.8 22-17.3 25-3.5 6.7-3.7 6.7-14-.3-9.7-6.5-16.2-15.2-16.2-21.9 0-7.1-5.6-16.4-9.9-16.4-14 0-36.5-52.1-36.6-84.8 0-30.9 2.4-78.7 4.4-87.8 1-4.5 1.4-8.9.9-9.7-1.6-2.7 5.1-13.7 8.4-13.7 2.7 0 3 4.7 2.4 36-.6 37.5-.5 38.5 5.4 32.1 3.1-3.5 3.2-4.8 1-10.2-2.4-5.6-2.7-17.6-1.4-46.9.4-10.4-2.2-14.8-8.9-14.9-19.4-.4-22.1 133.1-3.3 167.7 4.8 9 6 13.4 5.8 22.5-.2 7.1 1.2 15 3.7 21.4 2.2 5.6 5.4 16.2 7.1 23.7 6.1 26.6 17 54.5 24.5 63.1 2.9 3.2 10.3 3.5 101.7 3.5 92.1 0 98.6-.2 99.4-3.5.9-3.3.9-3.3 1.2 0 .2 3.3 3.5 3.5 47.7 3l47.4-.5 1.6-9.6c2.3-13.7-.6-18.2-22-34.1L314 341.6l9.7-4.8c5.2-2.6 13.5-8.1 18.3-12.2l8.7-7.5-1.4 9.8c-2.6 18.8 8.6 2.3 15.8-23.3 1.7-6.3 5-13.5 7.2-16l4-4.6-1.2 11.3c-.6 6.3-1.7 12.9-2.4 14.8-2.9 7.6 4.5 1.3 9.7-8.2 10.7-19.6 16.7-58.2 12.5-80.9-5.1-27.7-5.4-41.8-.9-40.6 5.6 1.5 5.1-1.6-2.6-16-8.6-16.4-12.6-27.2-16.4-45.4-6.9-32-22.5-63.7-40-81-25.8-25.4-85.4-44.7-108-35m-38.1 94.5c.4 1.4 3 10.1 5.9 19.3 2.9 9.3 4.8 17.3 4.3 17.8-1 1-16.8-10.9-20.5-15.6-2.2-2.6-2.5-2.6-2.5.5-.1 2 5.3 7.7 12.2 13 9.2 7.1 13.5 12.1 17 20 5.3 12.1 9 13.8 7.3 3.5-1-6.2-.7-6.9 2.4-5.7 3 1.1 3.2.7 1.2-3-1.3-2.4-3-4.3-3.8-4.3-.8 0-1.4-8.5-1.4-19 0-10.4.7-19 1.5-19s1.5 1.1 1.5 2.5c0 3.2 10.9 18.6 22.2 31.3 4.8 5.4 11.1 12.8 13.8 16.4 11.7 15.5 16.5 19.9 20.3 18.7 3.3-1 3.5-.6 1.7 4.1-8.2 21.5 10 43.3 23.2 27.9 11.3-13.1 9.6-31.7-3.4-38.4-4.8-2.4-4.8-2.4-.3-2.5 8.6 0 17.2 10.2 17.2 20.7 0 5.1.8 9.3 1.7 9.3 2.6 0 7.3-12.2 6.2-15.9-.8-2.7-.7-2.7 1.1-.1 1 1.7 2.2 13.6 2.6 26.5.4 12.9 1.4 23.5 2.2 23.5 3.7 0 1.3 12-2.8 14.2-3.8 2-4.1 1.8-2.8-1.5 2.3-5.6 3.8-11.8 2.6-10.7-.6.6-3.9 8-7.4 16.5-9.5 22.9-49.5 51.3-72.7 51.6-7.1 0-43.4-18.6-43.4-22.3 0-1.8-1.7-5.4-3.7-8-8.1-10.3-16.7-26.1-17.7-32.3-1.1-7.6-8.6-25.9-11.2-27.7-6.9-4.8-9.3-27.9-5.1-48.5 2.3-11.2 4.4-21.6 4.6-23.3.2-1.6 1.3-4.8 2.5-7 1.1-2.2 3.2-7.5 4.6-11.7 5.5-17.1 16.4-29.1 18.9-20.8m95.7 26.7l5.3 6.2-11.3 8.4c-13.7 10.1-14 9.8-14.9-16l-.7-19.3 8.2 7.3c4.5 3.9 10.6 10 13.4 13.4M70 129.7c0 17 .2 17.7 5.1 20 7.2 3.3 8 2.9 3.9-1.7-2.7-3-3.9-8.3-4.6-20-1.2-21.6-4.4-20.4-4.4 1.7m229.8 15.7c8.3 13.9 9.1 17.8 2.2 11.6-2.2-2-8.3-4-13.8-4.5-10.8-1.1-14.7 2.3-15.9 13.8-.5 4.3-2.9-.2-4.2-7.8-1.2-7.2-.9-7.7 8.4-14.1 5.4-3.7 10.2-7.9 10.8-9.5 2-5.1 4.3-3.2 12.5 10.5m-117.2 8.5c-17.2 7.8-23.8 19-18.3 31 3.4 7.3 5.7 6.3 5.7-2.6 0-10.4 11.2-20.5 22.4-20.2 4.6.2 4.6.2.3 1.9-4.5 1.8-13.2 12.3-15.4 18.6-1.6 4.6 6 22.7 11 26.2 12 8.4 27.6-16 19.7-30.8-1.3-2.4-1.3-4.2-.1-4.9 4.3-2.7-7.7-23.1-13.5-23.1-1.9.1-7.2 1.8-11.8 3.9m21.9 20.3c-1.3 4.9-7.2 4.2-8.2-.9-.5-3 .2-3.4 4-2.2l4.7 1.4-4-4.7-4-4.8 4.3 3.6c2.7 2.3 3.9 5.1 3.2 7.6m91 1.4c.5 1.3-.6 2.4-2.3 2.4-1.8 0-3.2-1.4-3.2-3.2 0-3.5 4.3-2.9 5.5.8M53 194.6c-11.8 6.5-22.9 14.2-23 15.9 0 3.2 4.7 1.2 15.5-6.5 6.1-4.4 12.4-8 13.8-8 1.5 0 2.7-1.3 2.7-3 0-3.6.7-3.8-9 1.6m145 5.4c0 1.1-1.3 2-3 2-1.6 0-3-.9-3-2s1.4-2 3-2c1.7 0 3 .9 3 2M79.6 212.5c-7.7 12.1-15.3 51.5-10 51.5.9 0 2.7-7.7 4-17 1.3-10.4 4.2-21 7.3-27.2 5.7-11.3 5.8-11.8 3.3-11.8-.9 0-3 2-4.6 4.5m155.3 5.6c-.7 1.2-.8 2.6-.2 3.2 1.4 1.5 5.3-1.1 5.3-3.4 0-2.6-3.5-2.4-5.1.2m-2.2 36.8c-4.4 3.8-4.9 5-2.3 5 1.8.1 3.9-.8 4.6-1.9 1.9-3 8.5-2.4 14.1 1.2 5.6 3.7 6.7 1 1.4-3.7-6.6-5.8-11.7-6-17.8-.6m-120.7 19c-3 7.4-12.6 13.6-22.8 14.9-11.4 1.4-11.2 3.2.3 3.2 13.2 0 32.3-16.9 26-23.1-.5-.6-2.1 1.7-3.5 5M238.7 302c6.3 0 12.6-2.2 25.8-9 6.5-3.3 6.7-2.7 1.8 4.6-11.4 16.8-15.2 23.2-15.8 27-1 6.8-2.3 6.6-9-1.7-3.5-4.3-12.2-13.7-19.3-20.8l-12.9-12.9 11.3 6.4c6.5 3.7 14.2 6.4 18.1 6.4m-17.4 4.2c25.6 24.7 30.3 30.9 24.8 32.4-2.1.5-5.7 3.9-7.9 7.5l-4 6.6-3.5-7.9c-10.6-23.7-17.9-38.6-22.2-45.5-6.1-9.7-2.4-7.7 12.8 6.9m87.5 10.8c-2.5 13.2-2.5 13.3-9.6 5.5l-6.6-7.2 7.2-12.1 7.2-12 1.5 9.9c.8 5.4.9 12.6.3 15.9m-36.2-11.8c1.9 3.6 2.3 8.3 1.3 15.5-.8 5.7-1.3 15.4-1.2 21.6.3 10.5 0 11.1-2.9 8-1.8-1.8-6.3-5.8-10.1-8.9-8.5-7-8.1-16.9 1.3-31.9 6.9-11 7.9-11.3 11.6-4.3m-5.1 61.3c5.8 12.4 7.6 19.2 4.4 16.1-2.3-2.2-5.9-10.5-9.3-21.1-2-6.6 1-3.5 4.9 5m-28.9 25.7c-.9.9-1.2-4.9-.6-12.8l1-14.4.6 12.8c.3 7-.1 13.5-1 14.4" />
</symbol>
<symbol id="icon-hero5" viewBox="0 0 400 400">
<path d="M242 3.6c0 5.6-4.6 6.7-14.2 3.3-10.6-3.7-37.6-3.8-51.8-.1-5.9 1.6-12.6 2.5-14.9 2-2.3-.4-7.2-1.4-11.1-2.1-3.8-.7-8.1-2.1-9.5-3.2-1.4-1.2-3.2-1.5-3.9-.8-1.9 2 9.5 13.4 16.4 16.5 4.6 2 5.1 2.7 2 2.7-2.2.1-7.4 1.9-11.5 4.1-4.1 2.2-8.5 4-9.8 4-3.9 0-23.7 15.9-23.7 19.1 0 4 .7 3.8 14.7-3.9 17.6-9.7 24.5-11.6 15.9-4.4-8.1 6.8-16.1 23.3-17.5 36-.6 5.5-2.4 11.3-4 13.1-4.3 4.7-11.7 22.2-10.1 23.8.8.7 4.5-2.3 8.2-6.7l6.9-8-.3 8c-.1 4.4.4 10.7 1.1 14 1.1 4.6.2 7.7-3.6 13.4-4.9 7.2-2.9 9.3 4.5 4.7.9-.5 2.4 1.9 3.2 5.4 1.2 5.1 1.7 5.6 2.4 2.5 2-9.3 2.7-9.5 8.4-1.6 6.5 8.9 24 24.6 27.6 24.6 4.2 0 4.8 3.7 1.7 11.1-1.7 4-2.6 9.3-2.1 11.6 1 4.9 2.3 25.8 4.3 72.3.9 22.4 2.1 32.6 3.9 34 2 1.6 2.1 4 .4 11.5-2.8 11.7.3 15.8 18.2 24.4l11.8 5.7-5.9 11.2c-13.6 25.4-16.1 27.4-32.2 26.4-12.2-.7-15.1 4.1-6.6 10.8 12 9.7 47.1 14.7 47.1 6.9 0-1 5-9 11-17.9 6.1-8.9 11-17.1 11-18.2 0-1.1.8-1.6 1.7-1 1 .6.8 5.2-.3 10.3-2.9 12.6 3.2 17.2 12.1 8.9 3.5-3.3 16.1-37.6 14.1-38.8-7.6-4.6-15.6-10.5-15.6-11.7 0-6.6 6.9-17.4 12-18.5 8.8-1.9 26-23.9 26-33-.4-58.5-8.3-89-27.7-106-12.5-11.1-14.9-15.1-5.2-8.7l5.5 3.6-2.6-4.9-2.6-4.8 5.4 3.5c6.2 4 10.8 2.6 6.2-2-4.4-4.4-3.7-8.4 2.6-14.4 3.1-2.9 6.6-7 7.8-9 1.9-3.6 2.2-3.6 7.4-.3 2.9 2 5.9 2.9 6.7 2.2.8-.8.1-2.3-1.6-3.4-2-1.3-.4-1.7 5.6-1.2 9.8.9 9.6 1.2 5.1-7.2-3.2-6.1-5.4-36.1-2.5-34.3.7.4 2.8 4.3 4.8 8.7 2 4.5 4.5 7.6 5.5 7 2.2-1.4.3-11-4.4-21.8-2-4.4-4.6-12.5-5.9-18-1.3-5.5-4.6-13.6-7.5-17.9l-5.2-8 5.8 3.7c3.2 2.1 8.1 5.9 10.9 8.5 7.1 6.5 8.8 5.9 4.5-1.8-7.9-14.3-23.9-25.4-41.1-28.6-7.7-1.4-8.5-2.7-9.9-14.7-.7-6-5.6-8.2-5.6-2.6m-58 71.6c-2.3 6.5-6.7 16.1-10 21.3-7.4 12.1-4.7 12.2 5.8.2 9.4-10.6 10.4-8.9 3.1 5.5l-5.1 10 5-3.2c2.7-1.8 8.7-8.2 13.3-14.1 4.6-6 9.4-10.9 10.6-10.8 5.2.1 10.3 6.5 13.5 16.9l3.4 11-10.5-1.3c-6.9-.8-11-.4-11.9 1.1-.9 1.4.4 2.2 3.7 2.2 5.1 0 5.2.1 1.8 5.2-3.2 4.9-3.2 5.3-.1 7.1 4.2 2.4 4.4 5.7.4 5.7-5 0-3.4 3.4 3 6 7.1 2.9 14.9-1 18-8.9.9-2.6 2.8-5.3 4-6.1 1.6-1 1-2.8-1.7-5.7-2.3-2.4-4.6-8.4-5.3-13.3l-1.2-9 6.2 13c6.8 14.2 6.8 18.3.1 32.4-5.3 10.9-5.1 11.9.8 4.6 3.8-4.6 5-5.2 5-2.5.3 11.8-33.8 26.5-58.3 25.1l-14-.8-11.8-12.2c-11.3-11.7-17.2-28.6-10-28.6 1 0 1.4-1.8.8-4-2-7.5 1.2-18 5.5-18 4.7 0 5 2.6.9 6.7-4 4-3.8 5.3 1 5.3 4.3 0 5.6 5.1 1.6 6.5-3.8 1.2.3 5.5 5.4 5.5 15.7 0 8.1-26.5-7.7-26.8-9.7-.3-9.3-1 5.1-9.2 6.7-3.8 16.8-12.1 22.4-18.3 12.2-13.6 12.3-13.6 7.2 1.5m32-.2c0 10.8 0 10.9-4.9 8.7l-4.8-2.2 4.2-8.8c5.4-11 5.5-10.9 5.5 2.3m47.9 46.9c6.2 11.6-.8 21.6-17.4 24.8-7.3 1.3-9.1-2.5-3.3-7.1 1.7-1.4 5.2-4.6 7.7-7.1 5.5-5.4 9.1-5.8 9.1-1 .1 2.9.4 3 1.9.6 2.1-3.4-.8-8.1-5.1-8.1-1.5 0-4.2 2.3-6 5-4.6 7.1-7.5 6.2-3.7-1.1 2.7-5.2 8.2-9.3 13.3-9.8.8 0 2.4 1.6 3.5 3.8M169 157c4.3 3.5 16.2 2.6 20-1.4 1.4-1.5.2-1.7-4-.6-7 1.7-8.3 1.7-15 0-4.9-1.3-4.9-1.2-1 2m58.1 6.1c-2 8-9.6 18.6-14.3 19.8-3.2.8-4.2 2.7-4.4 8.4-.2 4.1-1 7.9-1.9 8.6-.8.6-1.6 2.2-1.7 3.6-.7 8.5-1.5 8.4-3.9-.5-1.6-5.5-2.8-12.1-2.9-14.7 0-3-1.5-5.1-4-5.7-8.3-2.2-4.3-11.3 6-13.7 3.9-.9 7.5-1.8 8-2 .6-.1 5.1-2.1 10-4.4 5-2.3 9.3-4.3 9.7-4.4.4 0 .2 2.2-.6 5m18.3 4c22.2 18 26.3 27.2 27.7 62.3.6 14.1 2.1 31.2 3.2 38l2.1 12.5-10.4 13-10.3 13.1H242c-17.8 0-39-6.5-37.1-11.3 3.3-8.7 3.5-28.1.3-29.4-5.7-2.1-14.9-26-18.4-47.9-1.8-11.2-4.2-21.3-5.3-22.4-1.9-1.9-1.6 2.9 1.8 28 .9 6.5.6 7.5-1.5 5.5-6.3-6-4.9-1.5 3.3 11 4.9 7.4 8.8 15.3 8.7 17.5-.2 7.7-5 17.4-9.9 20.3l-4.9 2.9 5-1.3c2.8-.7 8.6-2.9 12.9-5 8.7-4.2 10.4-3.9 8 1.5-.8 2-1.4 4.3-1.2 5.1.3 1.6-11.7 13-16.7 16-7.5 4.4-12.1-5.3-12.6-26.6-.3-11.3-1-21.2-1.5-22.1-.5-.8-1-16.2-1.1-34.2-.2-37.3 1.3-43.6 10.5-43.6 6 0 6.4.6 3.9 7-1.3 3.1-.4 4.7 4.1 7.5 4.1 2.5 5.7 5 5.7 9.1 0 7.4 5.7 26.4 7.9 26.4 1.5 0 8.1-25.1 8.1-31 0-1.4 1.7-3 3.8-3.5 4.5-1.2 14.2-15.7 14.2-21.1 0-3.5 1.6-6.4 3.5-6.4.4 0 5.8 4.1 11.9 9.1m-10.8 30.4c-5.3 12.5-8.8 26.9-9.4 38.6-.3 6.1-2 14.2-3.9 17.9-4.5 9-6.3 21.1-3.5 22.9 1.4.8 2.2-.7 2.2-4.3 0-8.5 8.4-24.7 18.9-36.5 10.9-12.2 10.5-16.5-.5-5.2l-7.4 7.7-.6-6c-.3-3.2 2.1-13.5 5.5-22.6 6.7-18.5 7-20 4-20-1.2 0-3.5 3.4-5.3 7.5m24.2 53.8c-1.9 3.1-5.6 9.1-8.2 13.3-8.3 13.2-9.4 17.8-4.1 17 3.2-.4 4.3-1.8 4-4.6-.3-2.2 2.1-7.1 5.4-10.9 5.7-6.6 9.7-17.2 7.5-19.4-.6-.6-2.6 1.5-4.6 4.6M210 289.1c0 4.8 10 12.9 15.8 12.9 6.6-.1 30-6.3 35.2-9.3 8.5-5.1.4-5-14.9 0-20 6.6-21.1 6.6-28.4-.7-6.9-6.9-7.7-7.2-7.7-2.9m7 22.1c-4.3 3.2-11.4.2-9.8-4.1.9-2.2 2.4-2.3 7.3-.6 5.6 1.9 5.8 2.3 2.5 4.7m35.9 28.7c3.5 5.7-13.8 41.9-18 37.6-2.4-2.4 1.3-17.5 4.3-17.5 3.2 0 3.5-.7 6.8-13.5 2.1-8.2 4.5-10.5 6.9-6.6m-67.7 44.9c.6 1.6 5.5 3.9 11 5.2 10 2.5 12.2 4.6 6.7 6.8-7.1 2.7-42.9-8.4-42.9-13.2 0-3 24-1.8 25.2 1.2" /></symbol>
<symbol id="icon-hero6" viewBox="0 0 400 400">
<path d="M181.9 4.6c-6.4 2.5-15.2 8.3-19.8 13-7.1 7.3-9.3 8.4-15.9 7.6-12.6-1.3-32.2 13.6-42.1 32.1-5.6 10.4-13.7 33.8-12.3 35.3 1.6 1.5 7.7-4.1 7.7-7 0-1.5 1.5-4.5 3.4-6.8 3.4-4.1 3.4-4.1 1.9.1-5.7 17.1-7.1 28.8-7 60.7 0 19.1-.6 36.9-1.5 39.5-1 3.3-.6 4.7 1.6 4.7 2 0 3.9-4.8 5.6-14.7 3.9-21.4 6.3-23.1 6.3-4.4 0 10.4 2 24 5.7 38.3 3.1 12.1 5.1 23 4.4 24.1-.6 1.1-.3 3.7.8 5.7 1.7 2.9 2.5 2.2 4.9-4.3 3.5-9.9 6.4-10.3 5-.9-.5 3.8-1.8 12.6-2.8 19.5-2.1 14.8-.2 17.2 5.3 7 2.3-4.3 4.6-6.5 5.5-5.2 3.8 6.3 1.4 71.1-2.8 71.1-1 0-4.6 2-8 4.5-9.6 7.1-24.6 10.1-58.6 11.6-30.2 1.4-31 1.6-41.2 12.4-10.9 11.6-28 40-28 46.6v4.9h136.6l-4.6-7c-2.6-3.9-7-11.9-9.7-17.9-2.8-5.9-8.6-16-12.9-22.3-9.6-14.3-9.6-14.7.2-16.5 4.5-.9 12.3-3.9 17.4-6.8 11.5-6.3 11.7-6.4 10.4-.3-2.6 11.2-2.9 16.7-1.2 16.7 4 0 8.6-40.4 8.6-76.4.1-15.8.8-20 4.4-24.6 2.4-3 4.3-7.1 4.3-9.1s1.1-4.6 2.3-5.9c1.3-1.3 2.7-4.6 3-7.5.4-2.8 1.4-7.8 2.2-11 1.5-5.6 1.2-6-4.9-6-15.3 0-28.5-29-18-39.5 3.6-3.6 5.9.2 2.9 5-3.2 5.1-3.4 10.7-.5 10.7 1.2 0 2.2-1 2.2-2.3 0-1.2.7-1.8 1.6-1.3 2.1 1.3 2.1-13.9.1-17.2-4.2-6.5 6-6.7 14-.2 4.5 3.6 6.1 6.9 6.3 12.9.4 10.2 3.9 10.8 3.9.7 0-4.1 1-8.1 2.2-8.8 1.4-.8 2.2 3.4 2.3 11.2.2 18.3 5.2 46.6 7 39.6 1.4-5.2 3.2-22 3.5-31.9.1-2.7 1.2-4.8 2.5-4.8 1.2 0 1.7.8 1.1 1.9-.7 1 .2 5.6 1.9 10.2 3.5 9.7 4.1 8.5 3.4-7.3-.6-15.3 2.5-19.2 10.6-13.2 7.2 5.2 21.9 7.6 27.5 4.4 3.7-2.2 3.6-2.4-1.3-2.5-3.9 0-4.7-.7-2.9-2.4 9.3-9.3 13.4 3.1 5.1 15.5-8.3 12.3-7.1 12.9 6.3 3.4 13.1-9.5 17-10.2 6.6-1.3-10 8.6-4.1 8.2 6.9-.4l8.6-6.9 5.4 6.9c5.2 6.7 5.4 6.8 8.9 2.5 3.2-3.7 4.8-4 12.3-2.2 4.7 1.1 10.4 1.5 12.6.8 3.6-1.1 3.9-.2 2.6 8.9-2.9 21.9-11.2 38.2-28.5 56.3-4.6 4.7-11.2 12.3-14.6 16.7-14.1 17.9-39.3 13-66.7-13.1-5.7-5.5-8.1-6.7-8.1-4.3 0 6.5 37.9 32 47.5 32 3.4 0 4.4 1 3.5 3.8-7.8 25.3-7.5 53.6.6 56.3 1.9.6 2.2-.8.9-5.3-5.7-20.6.2-51.1 10.9-55.6 3.8-1.6 9.4-6 12.3-9.8 3-3.8 8.3-10.1 11.9-13.9 3.5-3.9 7.7-9 9.2-11.3 2.4-3.6 2.7-2.8 1.7 6-2.6 23.9 2.7 29.5 8.2 8.7 2.1-8 5.1-17.5 6.7-21.1l3-6.4.2 8.1c.2 8.5 4.5 11.6 4.5 3.2-.1-8.2 9.6-46.3 10.3-41.1 2.6 17 21.9-28.8 22.3-52.8.3-17.5 3.6-6.8 3.9 12.7.1 8 1.1 15 2.2 15.7 7.9 4.9 8.7-43.4 1.1-64.8-2.9-8.3-5.9-18.5-6.6-22.7-.7-4.1-2.1-9.2-3.2-11.2-2.5-4.6-2.5-6.6 0-5.1 4.3 2.6 17.5 25 17.6 29.7.1 4.7.2 4.7 2.4 1 5.6-9.6-2.7-32.7-18-50.1l-6.5-7.5h13.2c18.4 0 16.4-3-5.1-7.5-13.5-2.8-19.5-5.2-23.2-9.2-28.2-30.3-95.2-45.7-133.4-30.6m55.6 107.3c.1 9.9 2.9 25.9 6 33.9 1.3 3.3.9 3.6-2.9 1.6-6.3-3.4-16.4-4.8-19.7-2.8-1.9 1.2 0 2.3 5.9 3.2 17.8 2.9 22.5 7.3 17.5 16.6-2.1 4-2.4 4-9.6-.3-4.4-2.6-11.9-4.5-18.3-4.8-6-.2-11-.5-11-.7 0-.1 3.8-6 8.4-12.9 4.6-7 11.7-19.8 15.6-28.4 8.6-18.6 8-18.2 8.1-5.4m65.8 31.3c.9 14.3.8 14.6-4.3 14.6-3.4 0-4.9-.9-4.2-2.7.6-1.5 2.3-8.2 3.8-15 1.5-6.8 3-12.2 3.2-11.9.3.2.9 7 1.5 15m-19.1 17.3c-3.3 10.7-12.5 29.6-14 28.6-5.6-3.4-3.5-13.1 5.2-23 10.3-11.8 10.8-12.1 8.8-5.6m-135 2.4c0 1.6.7 3.6 1.6 4.5.9.9 1.7 5.2 1.8 9.5.1 4.4.9 10.9 1.8 14.5 1.5 6.4 1.5 6.4-2.1 1.6-5.1-6.9-7.5-6.1-4.6 1.6 3 7.9 9.5 8.7 11.4 1.3.7-2.9.2-7.3-1.2-9.8-1.4-2.6-1.8-6.6-1.1-9 .8-2.5.3-7.3-1.2-10.8-2.7-6.5-6.4-8.5-6.4-3.4m155.7 6.9c0 6.9-.4 7.4-4.2 5.4-2.3-1.2-6.2-2.2-8.6-2.2-9 0 .6-10.2 10.1-10.7 1.6-.1 2.7 2.8 2.7 7.5m-3.4 11.6c1.3 2.1-3.6 4.5-9.1 4.5-2.9 0-2.8-.5.7-3.1 4.9-3.8 6.7-4.1 8.4-1.4m-40.1 20.9c-.3 14.4-1.1 18.6-4.2 20.5-1.7 1-2.6 2.3-2 2.9 4.1 4 9.1-5.9 8.9-17.3-.4-14.1-2.4-18.8-2.7-6.1m-98.1 12c-.7 1.9 1 8.8 3.9 15.4 2.9 6.5 6.5 18.8 7.9 27.3 1.4 8.5 3.2 15.8 4 16.3.8.5 1.8 7 2.2 14.5.3 7.5 1.2 14.6 2 15.8.7 1.2 1.1 5.7.8 9.9-.3 4.1 1 17.5 2.8 29.7 1.9 12.2 3.4 22.7 3.4 23.3 0 .6-3.4 1.1-7.6 1.1h-7.6v-12.1c0-7.4-.8-11.5-2.1-10.6-1.2.7-2.2 6.1-2.2 12v10.7l-11.3.2c-6.3.2-12 .2-12.8.1-.8-.1-2 1.4-2.8 3.3-1.1 3 0 3.2 9 1.8 16-2.6 42-1.3 47.8 2.5 2.8 1.8 5.7 2.6 6.5 1.8 1.6-1.6-8.3-9.6-11.1-9-1 .2-2.2-3.5-2.7-8.3-3.8-37.6-9.9-85.7-11.6-91.9-1.2-4.2-2.6-11.6-3.2-16.4-.5-4.9-2.6-12.7-4.7-17.3-2-4.7-4.9-11.9-6.4-16-2.1-5.6-3.2-6.7-4.2-4.1m49.8 23.2c8 7.2 50.7 12 50.7 5.7 0-3.4-3.4-4.4-5.1-1.5-1.6 2.5-16.1 1.1-28.4-2.7-12-3.6-20.5-4.4-17.2-1.5m28.7 80.9c1.5 1.5 3.4 2.8 4.3 2.9 1.7.2 5.8 1.6 19.7 6.9 11.4 4.4 18 15.5 21.7 36.8l2.4 13.7-7.6 10.6-7.7 10.7H333c32.1 0 58.4-.6 58.4-1.4 0-.8-2.8-5.9-6.2-11.4-3.4-5.4-10.1-16.7-14.9-25-4.9-8.4-13.4-19.7-18.9-25.2l-10.1-10-33.9-.1c-24.5-.1-36.4-1.1-43.1-3.4-5-1.8-9.2-2.8-9.2-2.3 0 .6-2.8-.4-6.3-2.2-7.8-4-10.6-4.3-7-.6m6 40.6c-7.2 2.2-16.4 10.2-16.4 14.4 0 4.3 1.9 3.4 7.9-3.7 3-3.5 7.2-6.5 9.4-6.5s4.6-.9 5.3-2c.7-1.2 2.7-1.5 4.4-.9 1.8.7 3.2.2 3.2-1.1 0-2.8-4.9-2.9-13.8-.2" />
</symbol>
<symbol id="icon-hero7" viewBox="0 0 400 400">
<path d="M175.2 3c-34.4 9.3-57.9 32.6-76.5 76.3-3 7.1-8.4 19-11.9 26.4-14.9 31.2-23.3 54.7-26.1 73.1-1.1 6.8-2.5 15-3.3 18.1-1.4 6-23.9 34.6-30.7 39.1-10.8 7-10 16.6 3.1 38.1l10.6 17.4-4.1 13.8c-2.3 7.7-4.6 16.2-5.1 18.9-.5 2.8-2.5 6.4-4.3 8-13.2 11.7-20.4 30.3-20.5 53 0 14.6.1 14.8 3.8 14.8 3.6 0 9-14.9 9-25 0-6-3-1-5.2 8.6l-2.5 10.8-.1-14.6c-.2-17.5 2.1-25 11.4-37.3l6.8-8.9.5 10.1c.4 8.6.8 9.9 2.8 8.2 1.2-1 1.9-2.5 1.4-3.3-.5-.8-.2-1.4.6-1.4 1.4 0 5.4-8.2 7.9-16.7.9-3 2.8-5.1 5.4-5.8 4.6-1.2 4.6-1.5 4.8 46.9.2 26.3 1.5 34.3 4 24.3.5-2.2.7-21.1.3-42l-.7-37.9-6-11.9c-3.3-6.5-8.8-16.6-12.2-22.4-3.4-5.8-6.4-11.6-6.7-12.9-.3-1.3-.9-2.8-1.4-3.2-13.6-12.8-11.4-18.6 14.6-38.1 18.4-13.8 20-14 31.3-3.2 7.9 7.6 11.1 14.1 6.9 14.1-.9 0-1.5.9-1.2 2 .5 2.5-8.5 22-10.2 22-2.3 0-3.3-8.2-1.5-12.1 1.1-2.6 1.2-3.9.1-3.9-.9 0-2.6-2.3-3.8-5-2.1-5-5.4-3.9-3.4 1.2.6 1.6-.2 2.8-2.2 3.3-2.5.7-3 1.8-2.3 5.2.6 2.8 0 5.3-1.7 6.9-2.3 2.4-2.2 3 1.4 6.9 2.2 2.3 4.4 5.6 5 7.3.5 1.6 1.8 3 2.8 3 1.1 0 4.7 1.8 8 4.1s6.9 3.8 8 3.5c1.9-.7-10.3-9.2-13.1-9.2-4.4 0-9.4-13.9-6.4-17.8l2.9-3.8.1 4.5c0 6.6 7.9 13.6 10.8 9.7 1.1-1.6 1.8-3.6 1.5-4.6-.4-.9.7-3.8 2.3-6.4 10.3-17 10.7-18.8 5.4-25.8-5.2-6.8-2.7-8.3 3.4-2 2.5 2.7 6.1 5.5 8 6.3 5 1.9 7.4 56.5 3.1 67.9-3.5 9.2-.2 57.8 6.4 92.7l1.1 5.7h32.6c31.6 0 32.7-.1 31.1-3-1.5-2.9-4.8-19.4-8.2-41-3.5-22.4-3.9-62.6-.5-59.9 8 6.8 29.2 18 35 18.7 10 1.1 46.6-16.4 56.1-26.9 3.9-4.4 5-3.9 4.4 2.1-.3 2.9-1.2 16-2.1 29.2-1.4 22.2-2.2 30.6-4.1 45.6-.4 3.1-1 9.2-1.4 13.6-.4 4.4-1.8 11.1-3.1 14.8l-2.5 6.8h60l2-16.4c1.1-9 3.1-24 4.3-33.2 3.4-24.5 3.1-45-.9-57.5-6.9-22-6.9-48.4 0-55l3.6-3.5-1.1 3.7c-1 3.6 1.7 10.5 8.6 21.9 1.6 2.6 2.7 5.5 2.3 6.4-.3 1 .4 3 1.5 4.6 2.9 3.9 10.8-3.1 10.8-9.6V257l3.9 3.7 3.8 3.6-3.4 5.8c-1.8 3.3-4 6.3-4.8 6.9-.7.5-.1 1.4 1.4 2 3.2 1.3 2.8 1.6 6.2-5.1 1.5-2.9 3.7-5.7 5-6.2 3.2-1.2 2.9-3.2-.7-4.1-2-.5-3.3-2.9-4-7.4-.6-3.6-1.6-6.6-2.3-6.6-.8 0-1.3-1.5-1.2-3.4.2-5.4-3-5.2-5.1.3-1 2.8-2.6 4.5-3.5 4-2.2-1.4-2.1-.4.1 4.5 1.8 4 .8 12.2-1.5 12.2-1.7 0-10.7-19.5-10.2-22 .3-1.1-.3-2-1.2-2-.9 0-1.7-1.3-1.7-2.9 0-4.1 16.4-19.5 20.8-19.5 4.5 0 25.1 15.1 26.4 19.3.9 2.9 2.8 3.8 6.2 3.2 5.5-1 8.2 8.8 4.7 16.9-1.5 3.4-2.9 7.4-3.1 8.8-.5 2.7-9.7 22.3-14.6 31-3.4 6.2-4.2 98.4-.8 99.6 1.5.5 1.7-5 .9-24.7-1.5-37.7-.5-39.7 16.7-33.8 14.7 4.9 18 13 18 44.9 0 14.3 2.2 18.6 4.1 8.2 1.3-6.9.1-25.2-2.5-36.9-2.3-10.5-9.3-18.1-20.9-23-4.8-2-9.5-4.6-10.5-5.8-2.4-2.9-2.7-20.7-.3-25 1-1.9 2-4.6 2.2-5.9.2-1.3 3.8-10.3 8-20 9.3-21.1 9.9-27.7 3.5-37.3-2.5-3.7-4-6.7-3.5-6.7s-.5-2.4-2.3-5.3c-3-4.9-4.4-13.6-7.3-45.9-.2-2.2-1.5-6.2-2.8-8.8-1.4-2.6-2.9-9.1-3.3-14.4-1.4-14.9-11.6-46.9-21.3-66.4-33-66.6-52.9-85.4-92.3-87.3-6.8-.3-13.8-1.4-15.6-2.3-6.3-3.4-39.6-3.5-52-.2m73.3 97c3.9 14.1 7.6 27.5 8.1 29.9.6 2.3 1.4 5.3 1.9 6.6.7 1.7-.6 2.7-4.3 3.6-2.9.6-6.4 1.7-7.7 2.4-1.4.8-7.8 3-14.4 5-11.7 3.6-15.6 6.8-10.7 8.7 2.4.9 19.2-3.5 22.6-5.9 10.3-7.3 18.6-2.5 20.8 12.2 2.2 14.3 8.8 20.2 11.7 10.5 2.2-7.2 2.3-8.7.7-7.6-.7.4-1.2-3.2-1.2-7.9 0-14.7 8.7 1.5 9.6 17.7.2 3.5.9 10.6 1.6 15.8l1.2 9.4-6.5-6.5c-3.7-3.7-9.4-7.4-13.2-8.5-3.8-1.2-8.1-3.9-9.9-6.4-7.1-9.6-22.5-10.4-30.4-1.4-2.5 2.7-7.7 6.3-11.5 8-3.9 1.6-8.6 5.1-10.6 7.8-2.8 3.7-5.1 5-10.9 5.7-14.8 1.8-18.4-.4-24.9-15.2-4.8-10.7-20.2-15.9-27.1-9-2.8 2.7-6.2 4.1-11.1 4.5l-7.2.6-1-10.7c-1.5-15.1.1-22.6 4.5-21.5 1.9.5 4.3 1 5.3 1 1.3 0 1.9 3.5 1.9 11.2 0 6.1.4 12.6 1 14.4 1.2 3.7.1 4.5 16.3-11.6 9.3-9.2 10.2-9.7 14.1-7.9 8.3 3.8 11.6 1.2 6.1-4.8-2.5-2.8-2.4-3.1.4-5.3 1.7-1.3 2.6-2.3 2-2.3-.7-.1 2.5-3.5 7-7.7s11-11.1 14.3-15.3c7.8-9.8 8-6.2.4 8.9-7.6 15.2-15.8 26.3-21.7 29.3-8.6 4.5-1.9 9.2 7.6 5.3 2.6-1 5.7-2.1 6.9-2.3 16.5-3.3 48.2-59.8 48.2-85.9 0-7.2 3 .4 10.1 25.2m-110.6 9.1c-1 5.6-1.9 14.4-2.1 19.7-.3 10.4-1.8 13.6-6.3 13.6-6.7 0-5.8-9.7 2.8-30.8 6.6-16.1 8-16.7 5.6-2.5m-38.2 71.5c-.7 2.8-4 6.4-15.3 17-7.3 6.8-7.3 6.6 0 8 9.8 1.8 18.3 10.7 16.7 17.3-.2.7.3.9 1 .5.8-.5 3.2 1.1 5.3 3.4 2.1 2.4 3.2 3.9 2.4 3.3-.8-.6-2.4-.1-3.7 1.2-2.9 2.9-13-1.8-17.1-8-2-3-4.1-4.1-8-4.1-3 0-6.9-1.4-9-3.2-6.4-5.5-16.7-1.4-33.5 13.4-2.1 1.9-.7-.6 3.2-5.4 22.8-28.3 61.7-57.4 58-43.4m221.9 11.8c23.7 12.4 38.1 24.7 45 38.4l4.9 9.7-4.6-3.5c-25.5-19.7-30.7-21.9-37.3-16.2-2 1.8-5.7 3.2-8.2 3.2-3.3 0-6.2 1.8-10.4 6.4-5.2 5.8-16.6 9.5-16.6 5.4 0-7.6 18.2-24.6 26.4-24.6 5.1 0 2-5-6.7-10.8-28.9-19.1-23.9-24.4 7.5-8m-184.5-1.9c1.2 6 4.7 7.8 7.5 3.8 1.4-1.8 3.2-2.4 4.9-1.8 3.9 1.6 2.4 6.7-1.9 6.6-4.2-.2-5 4.8-1.1 6.3 8.8 3.4 23.1-.8 23.1-6.7 0-2.3.3-2.4 1.6-.3 11 17-13 42.2-37.2 39-15.6-2-16.6-3.7-21.2-35.8-.6-4-1.4-8.6-1.9-10.4-.7-2.2 1.2-1 5.9 3.7 9 8.9 12.2 8.4 11.5-1.7-.7-9.7 6.9-11.9 8.8-2.7m89.2 1.9c2.2 3.1 3 3.3 5.8 1.5 1.8-1.1 3.9-1.6 4.8-1.1 2.7 1.7 1.6 5.9-1.7 6.7-8.2 2.2-1 7 10.6 7.1 10.3.2 14.3-2.8 16.1-11.7 1-5.2 1.8-5.3 9.3-2.2 25.8 10.8 11.8 44.3-19.5 46.7-33 2.6-61.2-36.6-34.7-48.3 6.3-2.8 6.5-2.8 9.3 1.3m-23.9 20.3c5.4 39.6 80.4 44.6 83.7 5.6.7-8.9 2.5-11.9 5.4-9.1 3 3.1-.5 16.2-7.1 26.4-3.6 5.5-10.2 17.4-14.8 26.5-7.2 14.4-9.5 17.4-17.5 23.4-22.4 16.7-46.2 27.6-55.9 25.6-18.5-3.8-59.5-36.3-68.6-54.4-7.6-15.1-7.7-14.8 5-13.9 18.4 1.3 30-3.1 39-14.8 2-2.7 4.7-4.8 6-4.8 1.5 0 3.2-3 4.6-8.3 2.4-9 1.2-8.3 16.5-9.8 2-.2 2.9 1.6 3.7 7.6m119.8 16.4c-2 3.2-6.7 4.5-6.2 1.7.3-1.5.6-2.8.7-2.9 1.5-.6 6 .3 5.5 1.2m-139.8 4.3c0 3.6 5.7 11.1 7.2 9.5 1.3-1.3-3.8-12.5-5.8-12.5-.8 0-1.4 1.4-1.4 3m2 32.9c-5.6 2.5-6.3 4.9-2.9 9.4s36.7 3.4 37.4-1.3c.9-6.4-24.9-12.4-34.5-8.1m23.3 3.7l5.9 2.8-13.5.5c-16.1.5-19.6-.3-15.1-3.7 4.1-3.2 15.5-3 22.7.4"/>
</symbol>
</svg>