<svg xmlns="http://www.w3.org/2000/svg" xmlns:xlink="http://www.w3.org/1999/xlink" width="400" height="400" viewBox="0 0 400 400">
<path d="M129.2 3.2C127 9 128 17.1 131.8 24.6l3.8 7.4-4.6-1.2c-8.1-2-19.7 2.8-29.6 12.4-9.7 9.4-11.1 12.9-3.7 9 5.2-2.8 10.6-2.8 17.7 0 8.1 3.2 1.6 5.5-16.3 5.7C83 58 70.4 53 63.5 43.8c-5.6-7.6-7.7-7.3-6.2.7 1.8 10.2 8.5 23 14.7 28.2l5.7 4.8-13.3 2.2c-23.5 3.9-47.6 19.2-51 32.6-1.2 4.4 1.1 4.9 4.5.8 1.3-1.5 6.6-4.2 11.7-5.9 8.6-2.8 9-2.8 4.9.1-6.2 4.4-5.6 6.8 1.3 5.4 5.1-1 6.3-.3 9 4.9 1.7 3.3 5.6 8.1 8.7 10.5l5.5 4.5-7.5-1.2c-8.8-1.4-9.5.7-2.2 6.5 2.9 2.2 4.2 4.1 3 4.1-4.4 0-2.3 3.9 2.7 5.2l5.1 1.2-4.6 8.3c-7 12.9-27 19.6-43 14.5-7-2.3-5.3 1.2 3.9 7.8 12.8 9.3 20.1 12.8 26.3 12.9l5.7.1-5.5 6.5c-5.8 6.9-10.9 17.3-10.9 22.4 0 4.5 4.6 3.8 7.7-1.1 2.3-3.8 3.8-4.1 12-2.9 5.1.8 12 1.7 15.3 2 10.9 1 4.1 19-9.4 25.1l-8.2 3.6L56 251c4.2 2.2 9.8 3.1 16.2 2.7l9.8-.7-.5 10.8c-.5 11.2 3 16.4 5.2 7.6.7-2.6 3.7-5.8 6.8-7.1 4.8-2.1 5-2 2 .4-7.4 5.8 2.9 7.7 13.1 2.4 8-4.2 14.2-.8 18.3 10 1.8 4.7 4.6 9.6 6.1 10.9 2.4 2 2.4 3.3 0 8.7-1.5 3.4-3.2 7.8-3.7 9.7-1.5 4.6-19.5 18.5-41.2 31.6-27.2 16.5-33.5 21.2-40 30.2-4.8 6.6-12.1 25.1-12.1 30.6 0 .7 11.5 1.2 25.5 1.2H87l-.3-23.5c-.5-33.4-.7-33.1 16.3-44.5 8-5.4 15.9-11.2 17.6-12.9 3.6-3.6 6.3-4.1 4.2-.8-3.1 5-4.3 47.3-2.3 74.7l.5 6 83.4.5 83.4.5 1.2-6.5c.7-3.7 1.6-10.7 2-15.6 2.7-33.1 3.7-47.8 3.8-54.4.1-8.9.4-9 9.3-2.4 3.8 2.8 11.5 7.8 17.1 11l10.3 5.9-.6 11.5c-.6 13.6-3 41.7-4 46.9-.6 3.3 1.4 3.6 29.4 3.6h30l-1.4-4.5c-8.1-26.3-18.8-40.6-38.7-51.9-10.4-5.9-60.2-37.1-62-38.7-.4-.4.4-3.6 1.8-6.9 1.8-4.4 2-6.8.4-8.4-3.7-3.7 5-18.2 14.9-24.4 9.3-5.9 18.7-4 18.7 3.8 0 1.7 1.1 3 2.6 3 1.7 0 2.3-2.4 1.7-8-.6-7-.2-8 3.4-8 4.1 0 18.3-10.9 18.3-14.1 0-.9-3.1-1.2-6.8-.5-5.5.9-7.2.3-9.1-3.2-2.7-5.1.8-5.8 3.8-.7 3 5.2 6.5-.7 5.3-9-1-7.2-.7-7.4 4.9-4.4 2.3 1.2 3.9 4.1 3.9 7 0 5.5 2.9 6.6 4.8 1.7 2.1-5.6 1.2-13.6-2.6-22l-3.7-8.2 6.8-5.4c3.7-3 8.9-9.8 11.7-15.1 2.7-5.4 5.9-10.1 7.2-10.5 3.2-1.1-4.6-15.8-10.1-19.1-4.1-2.5-4-2.7 2.7-8.6 6.3-5.5 11.3-14.8 15.3-28.4 1.7-5.7-1.3-8-3.4-2.5-3.7 9.8-23.1 13.8-33 6.8l-6-4.3 7.3-6c6.9-5.7 20.9-30.3 18.5-32.6-.5-.6-3.7 1.6-6.9 4.8-6 6-17.2 10.3-27.1 10.3H326l8-7.2c8.2-7.5 12.6-18 10.9-26.2-.5-2.5-1.4-6.8-1.9-9.6-1.3-5.9-4.1-6.5-5.5-1.2-1.8 6.6-9.5 9.4-9.5 3.4 0-5.6 8.9-17.2 13.2-17.2 1.5 0 2.8-.9 2.8-2 0-3-19.4-2.4-25.6.8l-5.4 2.8.7-9.5c.6-9.2.3-9.8-9-17.8-11.3-9.6-13.3-10.2-10.6-3.2 4 10.7-4.6 18.5-14.9 13.6-8.6-4.1-8.9-6.5-2-12.5 7.1-6.2 6-6.4-11.2-2.4-15.4 3.6-22.4 6.5-28.4 11.7-3.8 3.3-7.6-2.7-7.6-11.8 0-7.4-4.9-2.6-8.1 8.1-2.9 9.7-3.3 10.1-5.3 5.8-6.2-13.7-23.4-25.2-18.5-12.5 3.7 10 2.6 17.6-2 13-7.7-7.7-25.5-14.9-41.6-16.7-9.6-1.1-10.9.6-3.6 4.6 9.8 5.2 20.5 28 13.3 28-4 0-24.2-20.6-26.5-27.1-2.7-7.3-6.5-9-8.5-3.7m92 165.1c-1.7 3.7-6 10.1-9.5 14.2s-5.9 7.9-5.4 8.5c1.3 1.3 29.6-12.4 34.4-16.6 3.9-3.6 3.3 3.7-1.1 12.3-2.6 5.1-.4 6.6 4 2.7 5.6-5.1 18-9.7 19.5-7.3 2.2 3.6-.6 7.3-6.4 8.8-9.7 2.3-32.4 13.4-33.5 16.3-1.4 3.6-.4 3.5 7-.3l6-3.1-3.3 5.1c-3.8 5.8-2.3 9.7 1.6 4.6 7.4-9.4 28.6-15.7 27.1-8-.5 2.7-2.3 3.4-8 2.9s-7.8.2-9.5 3.3c-5.5 10.3 1 22 10.8 19.5 4.9-1.2 7.2-5.2 3.1-5.2-6.4 0-.6-12.9 8.4-18.8 10.8-7 13.5 4.2 3.5 14.9-7.1 7.6-6.8 8.5 1.9 6 5.7-1.7 6.2-1.5 4.1 1-3.5 4.2-1.7 5.1 5.7 3 7.2-2.1 7.5-1.3 4.4 10.1-3.2 11.4-32.6 18.1-47.1 10.6-2.7-1.4-4.9-1.7-4.9-.8 0 4 8.5 6 24.8 6 20.7 0 28.5-5 32.7-20.8 1.4-5.1 3.4-9.2 4.4-9.2 1.1 0 1.4 1.5.7 3.3-1 2.5-.5 3.1 1.9 2.2 3.3-1.3 2.1 4.1-7.9 34.5-8.9 27.1-56 60.1-81.6 57.3-10.9-1.3-42.4-15.9-61.1-28.5-14.8-9.9-19.5-19.7-25.9-53.8-2-11-4.5-22.2-5.5-24.8-1.6-4.1-.6-5.9 7.2-13 5.2-4.8 11-12.8 13.8-19.2 6.1-13.9 9.3-17.4 17.2-19.1 3.5-.8 8.7-2.6 11.6-4.1l5.2-2.7-1.8 8.2c-2.3 10.1-.6 12.2 4.4 5.7l3.8-5-.6 10.5c-.7 11.4 2.4 14.2 6.3 5.6 2.2-4.8 10.4-11.4 29.4-23.7 11.4-7.3 13.7-5.3 8.2 6.9m148.4-1.9c4.9 4.9-1.8 8.6-11.1 6.3-4.5-1.1-4.5-1.4-1.3-4.9 3.9-4.3 8.9-4.9 12.4-1.4m-227.2 19.8c.4 1.3 5 3.7 10.2 5.4l9.4 3-10 3.4c-36.9 12.5-28.2 62 10.9 62 8.3 0 27.1-5.6 27.1-8.1 0-1-3.5-.5-7.7 1.2-21.3 8.5-45.8.7-46.6-14.9-1.2-26.3 9.1-36.2 35.8-34.5 2.5.2 8.1 3.6 12.5 7.6 9.1 8.1 11.2 8.2 7 .1-2.5-5-.8-8 2-3.4.7 1.1 2.6 2 4.2 2 8.5 0-8.6-10.1-31.6-18.7-17.7-6.6-24.2-8-23.2-5.1m24.1 23.1c-6.3 2.5-9.1 12.9-5.1 18.3 7.3 9.7 22.5 4.6 16.2-5.5-2.2-3.5-2.1-4.5.3-6 6.2-3.9-3.8-9.8-11.4-6.8m157.9 10.6c2.1 14.1-22.7 52.5-29.5 45.7-2-2 2-9.4 6.1-11.2 6.1-2.8 15.7-23.5 13-28.1-1.6-2.8-1.9-2.6-1.9 1.3-.1 3.9-9.1 24.4-10.8 24.4-4.9 0 4-21.5 12.6-30.3 8.8-9 9.4-9.1 10.5-1.8m-207 9.6c.1 1.9.5 7.7.9 12.9 1 11.2-2.6 9.8-8.5-3.4-3.6-7.9-3.6-8 .8-10.4 5.9-3.3 6.5-3.2 6.8.9m-12.7 5c1.7 6.5 11.8 21.5 14.5 21.5 2.4 0 5.6 5.9 4 7.4-1.6 1.7-11-5.7-17.7-14.1-9-11.1-9.7-12.4-8.3-16.1 1.8-4.7 6.2-3.9 7.5 1.3M206 268c0 2.2.9 4 2 4s2-1.8 2-4-.9-4-2-4-2 1.8-2 4m32.6 22.2c-3.2 3.2-35.7 4.6-46.5 2.1-9.7-2.2-12.2-1.6-8.4 2.2 6.6 6.6 57.5 3.2 59.8-4 1-3.1-1.9-3.3-4.9-.3m21.3 20.7c-4.2 4.2-35.9 22.1-44.7 25.3-12.6 4.6-14.2 9.8-7.6 24.6 9.7 21.4 3.8 27.6-12 12.7-10-9.5-11.3-11.7-13.6-23.5-1.5-7.1-4.2-15.2-6-18-1.9-2.7-5.8-8.8-8.7-13.5l-5.3-8.4 18.2 9.1c29.3 14.7 42.6 13.9 70.8-4.4 11.2-7.3 13.2-8.2 8.9-3.9" />
</svg>